<svg width="12" height="13" viewBox="0 0 12 13" fill="none" xmlns="http://www.w3.org/2000/svg">
    <path
        d="M9.20918 2.57922L2.20576 2.57922L2.12079 2.58296C1.56576 2.63877 1.15686 3.08866 1.15686 3.62811L1.16061 3.71308L1.17123 3.79135C1.25947 4.30613 1.69199 4.67701 2.20576 4.67701L6.67713 4.6768L2.0477 9.30623L1.99346 9.36517C1.63718 9.79595 1.66461 10.4065 2.0477 10.7896L2.09804 10.8368C2.51004 11.1986 3.13782 11.1828 3.53106 10.7896L8.16019 6.16047L8.16028 10.6315L8.16403 10.7165C8.21984 11.2715 8.66973 11.6804 9.20918 11.6804C9.78847 11.6804 10.2581 11.2108 10.2581 10.6315L10.2581 3.62811L10.2527 3.52139C10.1985 2.98812 9.74863 2.57922 9.20918 2.57922Z"
        fill="#CED0D5" />
</svg>