<svg width="16" height="16" viewBox="0 0 16 16" fill="none" xmlns="http://www.w3.org/2000/svg">
    <g clip-path="url(#clip0_329_4083)">
        <path
            d="M9.78611 8.13345L9.79811 8.12212C9.88981 8.03035 9.9423 7.90658 9.94454 7.77687C9.94678 7.64717 9.89859 7.52166 9.81012 7.42678L8.45745 5.97745C8.42853 5.94667 8.41243 5.90602 8.41243 5.86378C8.41243 5.82155 8.42853 5.7809 8.45745 5.75012L9.80945 4.30078C9.90081 4.20532 9.95067 4.07758 9.94813 3.94546C9.94558 3.81335 9.89085 3.68762 9.79589 3.59574C9.70093 3.50386 9.57346 3.45331 9.44133 3.45513C9.30921 3.45695 9.18318 3.51099 9.09078 3.60545L9.07878 3.61812L7.30145 5.52212C7.21504 5.61491 7.16699 5.73699 7.16699 5.86378C7.16699 5.99058 7.21504 6.11266 7.30145 6.20545L9.07878 8.11012C9.16961 8.20679 9.29505 8.26353 9.42763 8.26791C9.56021 8.27228 9.68911 8.22393 9.78611 8.13345Z"
            fill="white" />
        <path
            d="M10.8572 7.42634C10.7658 7.52181 10.716 7.64955 10.7185 7.78166C10.7211 7.91377 10.7758 8.03951 10.8708 8.13139C10.9657 8.22327 11.0932 8.27382 11.2253 8.272C11.3574 8.27018 11.4835 8.21614 11.5759 8.12168L11.5879 8.10968L13.3652 6.20501C13.4516 6.11222 13.4997 5.99014 13.4997 5.86334C13.4997 5.73655 13.4516 5.61446 13.3652 5.52168L11.5879 3.61768C11.4972 3.52075 11.3718 3.46377 11.2392 3.45927C11.1065 3.45477 10.9775 3.50311 10.8805 3.59368C10.831 3.63755 10.791 3.69105 10.7628 3.75091C10.7346 3.81077 10.719 3.87574 10.7167 3.94185C10.7145 4.00797 10.7257 4.07385 10.7497 4.13548C10.7738 4.19711 10.8101 4.25321 10.8565 4.30034L12.2092 5.74968C12.2381 5.78046 12.2542 5.82111 12.2542 5.86334C12.2542 5.90558 12.2381 5.94623 12.2092 5.97701L10.8572 7.42634Z"
            fill="white" />
        <path
            d="M15.6093 2L14 0.391333C13.8763 0.267393 13.7293 0.169041 13.5676 0.101895C13.4059 0.0347491 13.2325 0.000124918 13.0573 0L5.33334 0C4.97972 0 4.64058 0.140476 4.39053 0.390524C4.14048 0.640573 4.00001 0.979711 4.00001 1.33333V6.14267C3.99964 6.18606 4.01636 6.22786 4.04654 6.25904C4.07672 6.29022 4.11796 6.30828 4.16134 6.30933C4.40534 6.31333 4.85334 6.33133 5.15134 6.364C5.17434 6.36654 5.19762 6.36418 5.21964 6.35709C5.24166 6.34999 5.26194 6.33831 5.27913 6.32282C5.29632 6.30733 5.31003 6.28838 5.31938 6.26721C5.32872 6.24604 5.33348 6.22314 5.33334 6.2V1.66667C5.33334 1.57826 5.36846 1.49348 5.43097 1.43096C5.49348 1.36845 5.57827 1.33333 5.66667 1.33333H12.9193C13.0076 1.33335 13.0922 1.36835 13.1547 1.43067L14.5693 2.84467C14.6004 2.87576 14.6249 2.91267 14.6416 2.95329C14.6583 2.9939 14.6668 3.03742 14.6667 3.08133V12C14.6667 12.0884 14.6316 12.1732 14.569 12.2357C14.5065 12.2982 14.4217 12.3333 14.3333 12.3333H9.75401C9.71506 12.3334 9.67743 12.3474 9.64794 12.3729C9.61846 12.3983 9.59909 12.4335 9.59334 12.472C9.54129 12.8033 9.45803 13.129 9.34467 13.4447C9.33496 13.4693 9.33146 13.496 9.33445 13.5223C9.33745 13.5487 9.34687 13.5739 9.36187 13.5957C9.37688 13.6176 9.39701 13.6354 9.42052 13.6477C9.44402 13.6599 9.47017 13.6662 9.49667 13.666H14.6667C15.0203 13.666 15.3594 13.5255 15.6095 13.2755C15.8595 13.0254 16 12.6863 16 12.3327V2.94333C16.0001 2.76814 15.9656 2.59465 15.8985 2.43279C15.8315 2.27093 15.7332 2.12386 15.6093 2Z"
            fill="white" />
        <path fill-rule="evenodd" clip-rule="evenodd"
            d="M4.39983 7.19995H4.39976C3.52952 7.19995 2.67882 7.45801 1.95525 7.94148C1.23167 8.42496 0.667713 9.11215 0.334688 9.91614C0.0016623 10.7201 -0.0854723 11.6048 0.0843026 12.4583C0.254078 13.3119 0.673137 14.0959 1.28849 14.7112C1.90384 15.3266 2.68784 15.7456 3.54136 15.9154C4.39488 16.0852 5.27957 15.998 6.08356 15.665C6.88756 15.332 7.57474 14.768 8.05822 14.0445C8.5417 13.3209 8.79976 12.4702 8.79976 11.6V11.5999C8.79841 10.4334 8.33441 9.315 7.50956 8.49015C6.68471 7.66529 5.56635 7.2013 4.39983 7.19995ZM4.39968 14.9543C3.73627 14.9543 3.08776 14.7576 2.53616 14.389C1.98453 14.0204 1.55459 13.4966 1.30071 12.8836C1.04682 12.2707 0.980396 11.5962 1.10983 10.9455C1.23925 10.2949 1.55873 9.69716 2.02785 9.22804C2.49697 8.75892 3.09466 8.43945 3.74535 8.31002C4.39604 8.18059 5.07049 8.24702 5.68342 8.5009C6.29636 8.75479 6.82024 9.18473 7.18883 9.73635C7.5574 10.288 7.75413 10.9365 7.75414 11.5999C7.75308 12.4892 7.39932 13.3418 6.77047 13.9707C6.14161 14.5995 5.28901 14.9533 4.39968 14.9543ZM5.2382 14.9158C4.96629 14.9848 4.68475 15.0207 4.3995 15.0211C3.72288 15.0211 3.06145 14.8204 2.49886 14.4445C1.93627 14.0686 1.49779 13.5343 1.23886 12.9092C0.979925 12.2841 0.912177 11.5962 1.04418 10.9326C1.17618 10.269 1.502 9.65941 1.98045 9.18097C2.4141 8.74731 2.95548 8.43904 3.54719 8.28683C2.95558 8.43907 2.4143 8.74731 1.98071 9.1809C1.50227 9.65934 1.17644 10.2689 1.04444 10.9325C0.912438 11.5962 0.980186 12.284 1.23912 12.9091C1.49805 13.5342 1.93653 14.0685 2.49912 14.4445C3.06171 14.8204 3.72314 15.021 4.39976 15.021C4.68492 15.0207 4.96637 14.9848 5.2382 14.9158ZM3.34761 7.39629C3.6899 7.31061 4.04316 7.26662 4.39976 7.26662C5.54862 7.26795 6.65005 7.72492 7.46242 8.53729C8.27479 9.34966 8.73176 10.4511 8.73309 11.6C8.73309 12.457 8.47894 13.2948 8.00279 14.0074C7.52664 14.72 6.84986 15.2754 6.05805 15.6034C5.89769 15.6699 5.73407 15.7263 5.5681 15.7728C5.73398 15.7264 5.89751 15.6699 6.05779 15.6035C6.8496 15.2755 7.52638 14.7201 8.00253 14.0075C8.47868 13.2949 8.73283 12.4571 8.73283 11.6C8.7315 10.4512 8.27453 9.34972 7.46216 8.53735C6.64979 7.72498 5.54836 7.26801 4.3995 7.26668C4.04299 7.26668 3.68982 7.31066 3.34761 7.39629Z"
            fill="white" />
        <path
            d="M5.42609 13.3104H5.08398C5.05374 13.3104 5.02473 13.2984 5.00335 13.277C4.98196 13.2557 4.96995 13.2267 4.96995 13.1964V11.4859C4.96995 11.2439 4.87383 11.0119 4.70275 10.8408C4.53166 10.6697 4.29962 10.5736 4.05767 10.5736H3.60153C3.48055 10.5736 3.36453 10.6217 3.27899 10.7072C3.19344 10.7928 3.14539 10.9088 3.14539 11.0297C3.14539 11.1507 3.19344 11.2667 3.27899 11.3523C3.36453 11.4378 3.48055 11.4859 3.60153 11.4859H3.94363C3.95862 11.4858 3.97348 11.4887 3.98734 11.4944C4.0012 11.5002 4.0138 11.5086 4.0244 11.5192C4.035 11.5298 4.0434 11.5424 4.04911 11.5562C4.05482 11.5701 4.05773 11.5849 4.05767 11.5999V13.1964C4.05773 13.2114 4.05482 13.2263 4.04911 13.2401C4.0434 13.254 4.035 13.2666 4.0244 13.2772C4.0138 13.2878 4.0012 13.2962 3.98734 13.3019C3.97348 13.3076 3.95862 13.3105 3.94363 13.3104H3.60153C3.48055 13.3104 3.36453 13.3585 3.27899 13.444C3.19344 13.5296 3.14539 13.6456 3.14539 13.7666C3.14539 13.8876 3.19344 14.0036 3.27899 14.0891C3.36453 14.1747 3.48055 14.2227 3.60153 14.2227H5.42609C5.54706 14.2227 5.66308 14.1747 5.74863 14.0891C5.83417 14.0036 5.88223 13.8876 5.88223 13.7666C5.88223 13.6456 5.83417 13.5296 5.74863 13.444C5.66308 13.3585 5.54706 13.3104 5.42609 13.3104Z"
            fill="white" />
        <path
            d="M4.5138 10.2316C4.89168 10.2316 5.19801 9.92525 5.19801 9.54737C5.19801 9.16949 4.89168 8.86316 4.5138 8.86316C4.13592 8.86316 3.82959 9.16949 3.82959 9.54737C3.82959 9.92525 4.13592 10.2316 4.5138 10.2316Z"
            fill="white" />
    </g>
    <defs>
        <clipPath id="clip0_329_4083">
            <rect width="16" height="16" fill="white" />
        </clipPath>
    </defs>
</svg>