<svg width="168" height="169" viewBox="0 0 168 169" fill="none" xmlns="http://www.w3.org/2000/svg">
<path d="M144.699 119.582V49.4388L83.9393 14.3442L23.1777 49.4388V119.582L83.9393 154.655L144.699 119.582Z" fill="#181D29"/>
<path fill-rule="evenodd" clip-rule="evenodd" d="M150.49 59.2344V66.584H150.669V59.055H119.467V59.2344H150.49Z" fill="#9DB4F4"/>
<path fill-rule="evenodd" clip-rule="evenodd" d="M150.579 70.491C151.275 70.491 151.832 69.9538 151.832 69.3C151.832 68.6462 151.275 68.1091 150.579 68.1091C149.883 68.1091 149.327 68.6462 149.327 69.3C149.327 69.9538 149.883 70.491 150.579 70.491ZM152.011 69.3C152.011 70.0608 151.366 70.6704 150.579 70.6704C149.792 70.6704 149.147 70.0608 149.147 69.3C149.147 68.5392 149.792 67.9296 150.579 67.9296C151.366 67.9296 152.011 68.5392 152.011 69.3Z" fill="#9DB4F4"/>
<path fill-rule="evenodd" clip-rule="evenodd" d="M82.4358 33.8295C82.4358 34.4895 81.9007 35.0246 81.2406 35.0246C80.5805 35.0246 80.0454 34.4895 80.0454 33.8295C80.0454 33.1694 80.5805 32.6343 81.2406 32.6343C81.9007 32.6343 82.4358 33.1694 82.4358 33.8295ZM81.2406 35.2041C81.9998 35.2041 82.6152 34.5886 82.6152 33.8295C82.6152 33.0703 81.9998 32.4548 81.2406 32.4548C80.4814 32.4548 79.866 33.0703 79.866 33.8295C79.866 34.5886 80.4814 35.2041 81.2406 35.2041Z" fill="#9DB4F4"/>
<path fill-rule="evenodd" clip-rule="evenodd" d="M81.2871 61.0181L81.2871 36.27L81.1077 36.27L81.1077 61.0181L81.2871 61.0181Z" fill="#9DB4F4"/>
<path fill-rule="evenodd" clip-rule="evenodd" d="M66.512 132.378C66.512 131.717 67.0471 131.182 67.7072 131.182C68.3672 131.182 68.9023 131.717 68.9023 132.378C68.9023 133.038 68.3672 133.573 67.7072 133.573C67.0471 133.573 66.512 133.038 66.512 132.378ZM67.7072 131.003C66.948 131.003 66.3325 131.618 66.3325 132.378C66.3325 133.137 66.948 133.752 67.7072 133.752C68.4663 133.752 69.0818 133.137 69.0818 132.378C69.0818 131.618 68.4663 131.003 67.7072 131.003Z" fill="#9DB4F4"/>
<path fill-rule="evenodd" clip-rule="evenodd" d="M67.6606 105.189L67.6606 129.937L67.8401 129.937L67.8401 105.189L67.6606 105.189Z" fill="#9DB4F4"/>
<path fill-rule="evenodd" clip-rule="evenodd" d="M14.974 104.034C15.6341 104.034 16.1692 104.569 16.1692 105.229C16.1692 105.889 15.6341 106.424 14.974 106.424C14.3139 106.424 13.7788 105.889 13.7788 105.229C13.7788 104.569 14.3139 104.034 14.974 104.034ZM16.3486 105.229C16.3486 104.47 15.7332 103.854 14.974 103.854C14.2148 103.854 13.5994 104.47 13.5994 105.229C13.5994 105.988 14.2148 106.604 14.974 106.604C15.7332 106.604 16.3486 105.988 16.3486 105.229Z" fill="#9DB4F4"/>
<path fill-rule="evenodd" clip-rule="evenodd" d="M42.1626 105.183L17.4145 105.183L17.4145 105.362L42.1626 105.362L42.1626 105.183Z" fill="#9DB4F4"/>
<path d="M82.3663 76.5664H37.5667C36.4927 76.5664 35.6221 77.4385 35.6221 78.5144V112.418C35.6221 113.494 36.4927 114.366 37.5667 114.366H82.3663C83.4403 114.366 84.311 113.494 84.311 112.418V78.5144C84.311 77.4385 83.4403 76.5664 82.3663 76.5664Z" fill="url(#paint0_linear_626_5981)"/>
<path fill-rule="evenodd" clip-rule="evenodd" d="M37.5668 76.6559C36.5424 76.6559 35.7116 77.4879 35.7116 78.5144V112.419C35.7116 113.445 36.5424 114.277 37.5668 114.277H82.3664C83.3909 114.277 84.2216 113.445 84.2216 112.419V78.5144C84.2216 77.4879 83.3909 76.6559 82.3664 76.6559H37.5668ZM35.5327 78.5144C35.5327 77.3894 36.4433 76.4771 37.5668 76.4771H82.3664C83.4899 76.4771 84.4005 77.3894 84.4005 78.5144V112.419C84.4005 113.544 83.4899 114.456 82.3664 114.456H37.5668C36.4433 114.456 35.5327 113.544 35.5327 112.419V78.5144Z" fill="#A0B3F2"/>
<g style="mix-blend-mode:overlay" opacity="0.6">
<g style="mix-blend-mode:overlay" opacity="0.5">
<g style="mix-blend-mode:overlay" opacity="0.5">
<path d="M83.2576 79.2798H39.3161C38.8249 79.2798 38.4268 79.6786 38.4268 80.1706V112.972C38.4268 113.464 38.8249 113.863 39.3161 113.863H83.2576C83.7488 113.863 84.147 113.464 84.147 112.972V80.1706C84.147 79.6786 83.7488 79.2798 83.2576 79.2798Z" fill="black"/>
</g>
</g>
<g style="mix-blend-mode:overlay" opacity="0.6">
<path d="M82.18 78.2007H38.2385C37.7473 78.2007 37.3491 78.5995 37.3491 79.0915V111.893C37.3491 112.385 37.7473 112.784 38.2385 112.784H82.18C82.6712 112.784 83.0693 112.385 83.0693 111.893V79.0915C83.0693 78.5995 82.6712 78.2007 82.18 78.2007Z" fill="white"/>
</g>
</g>
<path d="M126.691 49.813H63.7042C63.5545 49.813 63.4331 49.9344 63.4331 50.0841V93.7628C63.4331 93.9125 63.5545 94.0339 63.7042 94.0339H126.691C126.841 94.0339 126.963 93.9125 126.963 93.7628V50.0841C126.963 49.9344 126.841 49.813 126.691 49.813Z" fill="#12151E"/>
<path d="M124.25 47.3359H61.2628C61.1131 47.3359 60.9917 47.4573 60.9917 47.607V91.2857C60.9917 91.4355 61.1131 91.5568 61.2628 91.5568H124.25C124.4 91.5568 124.521 91.4355 124.521 91.2857V47.607C124.521 47.4573 124.4 47.3359 124.25 47.3359Z" fill="#161B28"/>
<path fill-rule="evenodd" clip-rule="evenodd" d="M62.0761 47.0771L123.435 47.0771C123.792 47.0774 124.134 47.219 124.386 47.471C124.638 47.7229 124.78 48.0646 124.78 48.4211V90.4709C124.78 90.8274 124.638 91.1692 124.386 91.4211C124.134 91.6731 123.792 91.8147 123.435 91.8149H62.0761C61.7199 91.8145 61.3783 91.6727 61.1265 91.4207C60.8747 91.1687 60.7332 90.8272 60.7329 90.471L60.7329 48.4212C60.7332 48.065 60.8747 47.7233 61.1265 47.4714C61.3783 47.2194 61.7199 47.0776 62.0761 47.0771ZM123.435 47.256H62.0762C61.7673 47.2565 61.4713 47.3794 61.253 47.5978C61.0347 47.8163 60.912 48.1124 60.9118 48.4212V90.4709C60.912 90.7797 61.0347 91.0758 61.253 91.2943C61.4713 91.5127 61.7674 91.6356 62.0762 91.6361H123.435C123.744 91.6358 124.041 91.513 124.259 91.2946C124.478 91.0761 124.601 90.7798 124.601 90.4708V48.4213C124.601 48.1123 124.478 47.816 124.259 47.5975C124.041 47.3791 123.744 47.2562 123.435 47.256ZM62.0759 47.416L62.0761 47.416L123.435 47.416C123.702 47.4162 123.957 47.5222 124.146 47.7106C124.335 47.899 124.441 48.1545 124.441 48.421V90.4711C124.441 90.7376 124.335 90.9931 124.146 91.1815C123.957 91.3699 123.702 91.4758 123.435 91.4761H62.0759C61.8096 91.4756 61.5543 91.3695 61.3661 91.1811C61.1778 90.9927 61.072 90.7373 61.0718 90.471L61.0718 48.4212C61.072 48.1549 61.1778 47.8994 61.3661 47.711C61.5543 47.5226 61.8096 47.4165 62.0759 47.416ZM62.0762 47.5949C61.8572 47.5953 61.6474 47.6825 61.4926 47.8374C61.3379 47.9923 61.2509 48.2023 61.2506 48.4212C61.2506 48.4212 61.2506 48.4212 61.2506 48.4212V90.4708C61.2506 90.4708 61.2506 90.4708 61.2506 90.4708C61.2509 90.6898 61.3379 90.8998 61.4926 91.0547C61.6474 91.2096 61.8573 91.2968 62.0763 91.2972H123.435C123.654 91.297 123.865 91.2099 124.02 91.055C124.175 90.9 124.262 90.6899 124.262 90.4707V48.4214C124.262 48.2022 124.175 47.9921 124.02 47.8371C123.865 47.6822 123.654 47.5951 123.435 47.5949C123.435 47.5949 123.435 47.5949 123.435 47.5949H62.0762Z" fill="#375BD2"/>
<g opacity="0.15">
<path opacity="0.15" d="M68.3267 57.5745L70.458 56.4995V57.1103L68.9908 57.8185L70.458 58.5275V59.1434L68.3267 58.076V57.5745Z" fill="#2C5BDE"/>
<path opacity="0.15" d="M71.2155 59.3298H70.6226L72.3778 55.7261H72.9776L71.2155 59.3298Z" fill="#2C5BDE"/>
<path opacity="0.15" d="M75.2661 58.0709L73.1348 59.1434V58.5334L74.602 57.8244L73.1348 57.1153V56.4961L75.2661 57.5711V58.0709Z" fill="#2C5BDE"/>
<path opacity="0.15" d="M99.0959 65.0342H68.1562V65.2951H99.0959V65.0342Z" fill="#2C5BDE"/>
<path opacity="0.15" d="M99.0959 66.6084H68.1562V66.8693H99.0959V66.6084Z" fill="#2C5BDE"/>
<path opacity="0.15" d="M99.0959 69.7544H68.1562V70.0153H99.0959V69.7544Z" fill="#2C5BDE"/>
<path opacity="0.15" d="M85.8426 71.3286H68.1562V71.5895H85.8426V71.3286Z" fill="#2C5BDE"/>
<path opacity="0.15" d="M85.8426 72.9014H68.1562V73.1623H85.8426V72.9014Z" fill="#2C5BDE"/>
<path opacity="0.15" d="M104.684 68.1816H68.1562V68.4426H104.684V68.1816Z" fill="#2C5BDE"/>
<path opacity="0.15" d="M113.978 61.2656H68.1562V63.3529H113.978V61.2656Z" fill="#2C5BDE"/>
<path opacity="0.15" d="M109.345 80.3638H68.1562V80.6247H109.345V80.3638Z" fill="#2C5BDE"/>
<path opacity="0.15" d="M109.345 81.938H68.1562V82.1989H109.345V81.938Z" fill="#2C5BDE"/>
<path opacity="0.15" d="M99.0959 85.084H68.1562V85.3449H99.0959V85.084Z" fill="#2C5BDE"/>
<path opacity="0.15" d="M98.8748 83.5107H68.1562V83.7717H98.8748V83.5107Z" fill="#2C5BDE"/>
<path opacity="0.15" d="M113.978 76.5952H68.1562V78.6825H113.978V76.5952Z" fill="#2C5BDE"/>
</g>
<path d="M122.327 52.0967H63.187V52.2661H122.327V52.0967Z" fill="#2F59D4"/>
<path d="M64.2017 50.7812C64.5741 50.7812 64.876 50.4793 64.876 50.1069C64.876 49.7345 64.5741 49.4326 64.2017 49.4326C63.8292 49.4326 63.5273 49.7345 63.5273 50.1069C63.5273 50.4793 63.8292 50.7812 64.2017 50.7812Z" fill="url(#paint1_linear_626_5981)"/>
<path d="M66.4741 50.7812C66.8465 50.7812 67.1484 50.4793 67.1484 50.1069C67.1484 49.7345 66.8465 49.4326 66.4741 49.4326C66.1017 49.4326 65.7998 49.7345 65.7998 50.1069C65.7998 50.4793 66.1017 50.7812 66.4741 50.7812Z" fill="url(#paint2_linear_626_5981)"/>
<path d="M68.7456 50.7812C69.118 50.7812 69.4199 50.4793 69.4199 50.1069C69.4199 49.7345 69.118 49.4326 68.7456 49.4326C68.3732 49.4326 68.0713 49.7345 68.0713 50.1069C68.0713 50.4793 68.3732 50.7812 68.7456 50.7812Z" fill="url(#paint3_linear_626_5981)"/>
<path d="M36.6634 58.3511C36.6634 58.1263 36.6882 57.7845 36.9985 57.7845C37.3088 57.7845 37.3335 58.1263 37.3335 58.3511C37.3335 58.576 37.3088 58.9178 36.9985 58.9178C36.6882 58.9178 36.6634 58.576 36.6634 58.3511ZM36.4453 58.3511C36.4453 58.5512 36.47 58.7446 36.5622 58.8863C36.6544 59.0257 36.8073 59.1134 36.9985 59.1134C37.1896 59.1134 37.3425 59.0257 37.4347 58.8863C37.5269 58.7446 37.5516 58.5512 37.5516 58.3511C37.5516 58.151 37.5269 57.9576 37.4347 57.816C37.3425 57.6766 37.1896 57.5889 36.9985 57.5889C36.8073 57.5889 36.6544 57.6766 36.5622 57.816C36.47 57.9576 36.4453 58.151 36.4453 58.3511Z" fill="#9DB4F4"/>
<path d="M37.9216 58.3511C37.9216 58.1263 37.9464 57.7845 38.2567 57.7845C38.567 57.7845 38.5917 58.1263 38.5917 58.3511C38.5917 58.576 38.567 58.9178 38.2567 58.9178C37.9464 58.9178 37.9216 58.576 37.9216 58.3511ZM37.7035 58.3511C37.7035 58.5512 37.7283 58.7446 37.8205 58.8863C37.9127 59.0257 38.0656 59.1134 38.2567 59.1134C38.4478 59.1134 38.6007 59.0257 38.6929 58.8863C38.7851 58.7446 38.8098 58.5512 38.8098 58.3511C38.8098 58.151 38.7851 57.9576 38.6929 57.816C38.6007 57.6766 38.4478 57.5889 38.2567 57.5889C38.0656 57.5889 37.9127 57.6766 37.8205 57.816C37.7283 57.9576 37.7035 58.151 37.7035 58.3511Z" fill="#9DB4F4"/>
<path d="M39.1214 58.8818V59.0797H40.0546V58.8818H39.7038V57.6226H39.5104C39.4767 57.78 39.3373 57.8924 39.1349 57.8969V58.0521H39.4879V58.8818H39.1214Z" fill="#9DB4F4"/>
<path d="M40.3796 58.8818V59.0797H41.3128V58.8818H40.962V57.6226H40.7686C40.7349 57.78 40.5955 57.8924 40.3931 57.8969V58.0521H40.7461V58.8818H40.3796Z" fill="#9DB4F4"/>
<path d="M41.6963 58.3511C41.6963 58.1263 41.7211 57.7845 42.0314 57.7845C42.3417 57.7845 42.3664 58.1263 42.3664 58.3511C42.3664 58.576 42.3417 58.9178 42.0314 58.9178C41.7211 58.9178 41.6963 58.576 41.6963 58.3511ZM41.4782 58.3511C41.4782 58.5512 41.5029 58.7446 41.5951 58.8863C41.6873 59.0257 41.8402 59.1134 42.0314 59.1134C42.2225 59.1134 42.3754 59.0257 42.4676 58.8863C42.5598 58.7446 42.5845 58.5512 42.5845 58.3511C42.5845 58.151 42.5598 57.9576 42.4676 57.816C42.3754 57.6766 42.2225 57.5889 42.0314 57.5889C41.8402 57.5889 41.6873 57.6766 41.5951 57.816C41.5029 57.9576 41.4782 58.151 41.4782 58.3511Z" fill="#9DB4F4"/>
<path d="M42.8961 58.8818V59.0797H43.8292V58.8818H43.4785V57.6226H43.2851C43.2514 57.78 43.1119 57.8924 42.9096 57.8969V58.0521H43.2626V58.8818H42.8961Z" fill="#9DB4F4"/>
<path d="M44.1543 58.8818V59.0797H45.0875V58.8818H44.7367V57.6226H44.5433C44.5096 57.78 44.3702 57.8924 44.1678 57.8969V58.0521H44.5208V58.8818H44.1543Z" fill="#9DB4F4"/>
<path d="M45.4125 58.8818V59.0797H46.3457V58.8818H45.9949V57.6226H45.8015C45.7678 57.78 45.6284 57.8924 45.426 57.8969V58.0521H45.779V58.8818H45.4125Z" fill="#9DB4F4"/>
<path d="M47.9874 58.3511C47.9874 58.1263 48.0122 57.7845 48.3225 57.7845C48.6328 57.7845 48.6575 58.1263 48.6575 58.3511C48.6575 58.576 48.6328 58.9178 48.3225 58.9178C48.0122 58.9178 47.9874 58.576 47.9874 58.3511ZM47.7693 58.3511C47.7693 58.5512 47.7941 58.7446 47.8863 58.8863C47.9785 59.0257 48.1314 59.1134 48.3225 59.1134C48.5136 59.1134 48.6665 59.0257 48.7587 58.8863C48.8509 58.7446 48.8756 58.5512 48.8756 58.3511C48.8756 58.151 48.8509 57.9576 48.7587 57.816C48.6665 57.6766 48.5136 57.5889 48.3225 57.5889C48.1314 57.5889 47.9785 57.6766 47.8863 57.816C47.7941 57.9576 47.7693 58.151 47.7693 58.3511Z" fill="#9DB4F4"/>
<path d="M49.2457 58.3511C49.2457 58.1263 49.2704 57.7845 49.5807 57.7845C49.891 57.7845 49.9157 58.1263 49.9157 58.3511C49.9157 58.576 49.891 58.9178 49.5807 58.9178C49.2704 58.9178 49.2457 58.576 49.2457 58.3511ZM49.0276 58.3511C49.0276 58.5512 49.0523 58.7446 49.1445 58.8863C49.2367 59.0257 49.3896 59.1134 49.5807 59.1134C49.7718 59.1134 49.9247 59.0257 50.0169 58.8863C50.1091 58.7446 50.1339 58.5512 50.1339 58.3511C50.1339 58.151 50.1091 57.9576 50.0169 57.816C49.9247 57.6766 49.7718 57.5889 49.5807 57.5889C49.3896 57.5889 49.2367 57.6766 49.1445 57.816C49.0523 57.9576 49.0276 58.151 49.0276 58.3511Z" fill="#9DB4F4"/>
<path d="M50.4454 58.8818V59.0797H51.3786V58.8818H51.0278V57.6226H50.8344C50.8007 57.78 50.6613 57.8924 50.4589 57.8969V58.0521H50.8119V58.8818H50.4454Z" fill="#9DB4F4"/>
<path d="M51.7037 58.8818V59.0797H52.6368V58.8818H52.286V57.6226H52.0927C52.0589 57.78 51.9195 57.8924 51.7172 57.8969V58.0521H52.0702V58.8818H51.7037Z" fill="#9DB4F4"/>
<path d="M53.0203 58.3511C53.0203 58.1263 53.0451 57.7845 53.3554 57.7845C53.6657 57.7845 53.6904 58.1263 53.6904 58.3511C53.6904 58.576 53.6657 58.9178 53.3554 58.9178C53.0451 58.9178 53.0203 58.576 53.0203 58.3511ZM52.8022 58.3511C52.8022 58.5512 52.827 58.7446 52.9192 58.8863C53.0114 59.0257 53.1643 59.1134 53.3554 59.1134C53.5465 59.1134 53.6994 59.0257 53.7916 58.8863C53.8838 58.7446 53.9085 58.5512 53.9085 58.3511C53.9085 58.151 53.8838 57.9576 53.7916 57.816C53.6994 57.6766 53.5465 57.5889 53.3554 57.5889C53.1643 57.5889 53.0114 57.6766 52.9192 57.816C52.827 57.9576 52.8022 58.151 52.8022 58.3511Z" fill="#9DB4F4"/>
<path d="M54.2201 58.8818V59.0797H55.1533V58.8818H54.8025V57.6226H54.6091C54.5754 57.78 54.436 57.8924 54.2336 57.8969V58.0521H54.5866V58.8818H54.2201Z" fill="#9DB4F4"/>
<path d="M55.4783 58.8818V59.0797H56.4115V58.8818H56.0607V57.6226H55.8673C55.8336 57.78 55.6942 57.8924 55.4918 57.8969V58.0521H55.8448V58.8818H55.4783Z" fill="#9DB4F4"/>
<path d="M56.7366 58.8818V59.0797H57.6697V58.8818H57.3189V57.6226H57.1256C57.0918 57.78 56.9524 57.8924 56.75 57.8969V58.0521H57.1031V58.8818H56.7366Z" fill="#9DB4F4"/>
<path d="M36.6634 61.7242C36.6634 61.4993 36.6882 61.1575 36.9985 61.1575C37.3088 61.1575 37.3335 61.4993 37.3335 61.7242C37.3335 61.949 37.3088 62.2908 36.9985 62.2908C36.6882 62.2908 36.6634 61.949 36.6634 61.7242ZM36.4453 61.7242C36.4453 61.9243 36.47 62.1177 36.5622 62.2593C36.6544 62.3987 36.8073 62.4864 36.9985 62.4864C37.1896 62.4864 37.3425 62.3987 37.4347 62.2593C37.5269 62.1177 37.5516 61.9243 37.5516 61.7242C37.5516 61.5241 37.5269 61.3307 37.4347 61.189C37.3425 61.0496 37.1896 60.9619 36.9985 60.9619C36.8073 60.9619 36.6544 61.0496 36.5622 61.189C36.47 61.3307 36.4453 61.5241 36.4453 61.7242Z" fill="#9DB4F4"/>
<path d="M37.8632 62.2548V62.4527H38.7963V62.2548H38.4456V60.9956H38.2522C38.2185 61.153 38.079 61.2655 37.8767 61.27V61.4251H38.2297V62.2548H37.8632Z" fill="#9DB4F4"/>
<path d="M39.1799 61.7242C39.1799 61.4993 39.2046 61.1575 39.5149 61.1575C39.8252 61.1575 39.8499 61.4993 39.8499 61.7242C39.8499 61.949 39.8252 62.2908 39.5149 62.2908C39.2046 62.2908 39.1799 61.949 39.1799 61.7242ZM38.9618 61.7242C38.9618 61.9243 38.9865 62.1177 39.0787 62.2593C39.1709 62.3987 39.3238 62.4864 39.5149 62.4864C39.706 62.4864 39.8589 62.3987 39.9511 62.2593C40.0433 62.1177 40.0681 61.9243 40.0681 61.7242C40.0681 61.5241 40.0433 61.3307 39.9511 61.189C39.8589 61.0496 39.706 60.9619 39.5149 60.9619C39.3238 60.9619 39.1709 61.0496 39.0787 61.189C38.9865 61.3307 38.9618 61.5241 38.9618 61.7242Z" fill="#9DB4F4"/>
<path d="M40.4381 61.7242C40.4381 61.4993 40.4628 61.1575 40.7731 61.1575C41.0834 61.1575 41.1082 61.4993 41.1082 61.7242C41.1082 61.949 41.0834 62.2908 40.7731 62.2908C40.4628 62.2908 40.4381 61.949 40.4381 61.7242ZM40.22 61.7242C40.22 61.9243 40.2447 62.1177 40.3369 62.2593C40.4291 62.3987 40.582 62.4864 40.7731 62.4864C40.9643 62.4864 41.1172 62.3987 41.2094 62.2593C41.3015 62.1177 41.3263 61.9243 41.3263 61.7242C41.3263 61.5241 41.3015 61.3307 41.2094 61.189C41.1172 61.0496 40.9643 60.9619 40.7731 60.9619C40.582 60.9619 40.4291 61.0496 40.3369 61.189C40.2447 61.3307 40.22 61.5241 40.22 61.7242Z" fill="#9DB4F4"/>
<path d="M41.6379 62.2548V62.4527H42.571V62.2548H42.2202V60.9956H42.0269C41.9931 61.153 41.8537 61.2655 41.6514 61.27V61.4251H42.0044V62.2548H41.6379Z" fill="#9DB4F4"/>
<path d="M42.8961 62.2548V62.4527H43.8292V62.2548H43.4785V60.9956H43.2851C43.2514 61.153 43.1119 61.2655 42.9096 61.27V61.4251H43.2626V62.2548H42.8961Z" fill="#9DB4F4"/>
<path d="M44.1543 62.2548V62.4527H45.0875V62.2548H44.7367V60.9956H44.5433C44.5096 61.153 44.3702 61.2655 44.1678 61.27V61.4251H44.5208V62.2548H44.1543Z" fill="#9DB4F4"/>
<path d="M45.471 61.7242C45.471 61.4993 45.4957 61.1575 45.806 61.1575C46.1163 61.1575 46.1411 61.4993 46.1411 61.7242C46.1411 61.949 46.1163 62.2908 45.806 62.2908C45.4957 62.2908 45.471 61.949 45.471 61.7242ZM45.2529 61.7242C45.2529 61.9243 45.2776 62.1177 45.3698 62.2593C45.462 62.3987 45.6149 62.4864 45.806 62.4864C45.9972 62.4864 46.1501 62.3987 46.2423 62.2593C46.3344 62.1177 46.3592 61.9243 46.3592 61.7242C46.3592 61.5241 46.3344 61.3307 46.2423 61.189C46.1501 61.0496 45.9972 60.9619 45.806 60.9619C45.6149 60.9619 45.462 61.0496 45.3698 61.189C45.2776 61.3307 45.2529 61.5241 45.2529 61.7242Z" fill="#9DB4F4"/>
<path d="M47.9874 61.7242C47.9874 61.4993 48.0122 61.1575 48.3225 61.1575C48.6328 61.1575 48.6575 61.4993 48.6575 61.7242C48.6575 61.949 48.6328 62.2908 48.3225 62.2908C48.0122 62.2908 47.9874 61.949 47.9874 61.7242ZM47.7693 61.7242C47.7693 61.9243 47.7941 62.1177 47.8863 62.2593C47.9785 62.3987 48.1314 62.4864 48.3225 62.4864C48.5136 62.4864 48.6665 62.3987 48.7587 62.2593C48.8509 62.1177 48.8756 61.9243 48.8756 61.7242C48.8756 61.5241 48.8509 61.3307 48.7587 61.189C48.6665 61.0496 48.5136 60.9619 48.3225 60.9619C48.1314 60.9619 47.9785 61.0496 47.8863 61.189C47.7941 61.3307 47.7693 61.5241 47.7693 61.7242Z" fill="#9DB4F4"/>
<path d="M49.1872 62.2548V62.4527H50.1204V62.2548H49.7696V60.9956H49.5762C49.5425 61.153 49.4031 61.2655 49.2007 61.27V61.4251H49.5537V62.2548H49.1872Z" fill="#9DB4F4"/>
<path d="M50.5039 61.7242C50.5039 61.4993 50.5286 61.1575 50.8389 61.1575C51.1492 61.1575 51.174 61.4993 51.174 61.7242C51.174 61.949 51.1492 62.2908 50.8389 62.2908C50.5286 62.2908 50.5039 61.949 50.5039 61.7242ZM50.2858 61.7242C50.2858 61.9243 50.3105 62.1177 50.4027 62.2593C50.4949 62.3987 50.6478 62.4864 50.8389 62.4864C51.0301 62.4864 51.183 62.3987 51.2752 62.2593C51.3673 62.1177 51.3921 61.9243 51.3921 61.7242C51.3921 61.5241 51.3673 61.3307 51.2752 61.189C51.183 61.0496 51.0301 60.9619 50.8389 60.9619C50.6478 60.9619 50.4949 61.0496 50.4027 61.189C50.3105 61.3307 50.2858 61.5241 50.2858 61.7242Z" fill="#9DB4F4"/>
<path d="M51.7621 61.7242C51.7621 61.4993 51.7869 61.1575 52.0972 61.1575C52.4075 61.1575 52.4322 61.4993 52.4322 61.7242C52.4322 61.949 52.4075 62.2908 52.0972 62.2908C51.7869 62.2908 51.7621 61.949 51.7621 61.7242ZM51.544 61.7242C51.544 61.9243 51.5687 62.1177 51.6609 62.2593C51.7531 62.3987 51.906 62.4864 52.0972 62.4864C52.2883 62.4864 52.4412 62.3987 52.5334 62.2593C52.6256 62.1177 52.6503 61.9243 52.6503 61.7242C52.6503 61.5241 52.6256 61.3307 52.5334 61.189C52.4412 61.0496 52.2883 60.9619 52.0972 60.9619C51.906 60.9619 51.7531 61.0496 51.6609 61.189C51.5687 61.3307 51.544 61.5241 51.544 61.7242Z" fill="#9DB4F4"/>
<path d="M52.9619 62.2548V62.4527H53.895V62.2548H53.5443V60.9956H53.3509C53.3172 61.153 53.1777 61.2655 52.9754 61.27V61.4251H53.3284V62.2548H52.9619Z" fill="#9DB4F4"/>
<path d="M54.2786 61.7242C54.2786 61.4993 54.3033 61.1575 54.6136 61.1575C54.9239 61.1575 54.9486 61.4993 54.9486 61.7242C54.9486 61.949 54.9239 62.2908 54.6136 62.2908C54.3033 62.2908 54.2786 61.949 54.2786 61.7242ZM54.0605 61.7242C54.0605 61.9243 54.0852 62.1177 54.1774 62.2593C54.2696 62.3987 54.4225 62.4864 54.6136 62.4864C54.8047 62.4864 54.9576 62.3987 55.0498 62.2593C55.142 62.1177 55.1667 61.9243 55.1667 61.7242C55.1667 61.5241 55.142 61.3307 55.0498 61.189C54.9576 61.0496 54.8047 60.9619 54.6136 60.9619C54.4225 60.9619 54.2696 61.0496 54.1774 61.189C54.0852 61.3307 54.0605 61.5241 54.0605 61.7242Z" fill="#9DB4F4"/>
<path d="M55.4783 62.2548V62.4527H56.4115V62.2548H56.0607V60.9956H55.8673C55.8336 61.153 55.6942 61.2655 55.4918 61.27V61.4251H55.8448V62.2548H55.4783Z" fill="#9DB4F4"/>
<path d="M56.7366 62.2548V62.4527H57.6697V62.2548H57.3189V60.9956H57.1256C57.0918 61.153 56.9524 61.2655 56.75 61.27V61.4251H57.1031V62.2548H56.7366Z" fill="#9DB4F4"/>
<path d="M36.6634 65.0967C36.6634 64.8719 36.6882 64.5301 36.9985 64.5301C37.3088 64.5301 37.3335 64.8719 37.3335 65.0967C37.3335 65.3216 37.3088 65.6634 36.9985 65.6634C36.6882 65.6634 36.6634 65.3216 36.6634 65.0967ZM36.4453 65.0967C36.4453 65.2969 36.47 65.4902 36.5622 65.6319C36.6544 65.7713 36.8073 65.859 36.9985 65.859C37.1896 65.859 37.3425 65.7713 37.4347 65.6319C37.5269 65.4902 37.5516 65.2969 37.5516 65.0967C37.5516 64.8966 37.5269 64.7032 37.4347 64.5616C37.3425 64.4222 37.1896 64.3345 36.9985 64.3345C36.8073 64.3345 36.6544 64.4222 36.5622 64.5616C36.47 64.7032 36.4453 64.8966 36.4453 65.0967Z" fill="#9DB4F4"/>
<path d="M37.9216 65.0967C37.9216 64.8719 37.9464 64.5301 38.2567 64.5301C38.567 64.5301 38.5917 64.8719 38.5917 65.0967C38.5917 65.3216 38.567 65.6634 38.2567 65.6634C37.9464 65.6634 37.9216 65.3216 37.9216 65.0967ZM37.7035 65.0967C37.7035 65.2969 37.7283 65.4902 37.8205 65.6319C37.9127 65.7713 38.0656 65.859 38.2567 65.859C38.4478 65.859 38.6007 65.7713 38.6929 65.6319C38.7851 65.4902 38.8098 65.2969 38.8098 65.0967C38.8098 64.8966 38.7851 64.7032 38.6929 64.5616C38.6007 64.4222 38.4478 64.3345 38.2567 64.3345C38.0656 64.3345 37.9127 64.4222 37.8205 64.5616C37.7283 64.7032 37.7035 64.8966 37.7035 65.0967Z" fill="#9DB4F4"/>
<path d="M39.1214 65.6274V65.8253H40.0546V65.6274H39.7038V64.3682H39.5104C39.4767 64.5256 39.3373 64.638 39.1349 64.6425V64.7977H39.4879V65.6274H39.1214Z" fill="#9DB4F4"/>
<path d="M40.4381 65.0967C40.4381 64.8719 40.4628 64.5301 40.7731 64.5301C41.0834 64.5301 41.1082 64.8719 41.1082 65.0967C41.1082 65.3216 41.0834 65.6634 40.7731 65.6634C40.4628 65.6634 40.4381 65.3216 40.4381 65.0967ZM40.22 65.0967C40.22 65.2969 40.2447 65.4902 40.3369 65.6319C40.4291 65.7713 40.582 65.859 40.7731 65.859C40.9643 65.859 41.1172 65.7713 41.2094 65.6319C41.3015 65.4902 41.3263 65.2969 41.3263 65.0967C41.3263 64.8966 41.3015 64.7032 41.2094 64.5616C41.1172 64.4222 40.9643 64.3345 40.7731 64.3345C40.582 64.3345 40.4291 64.4222 40.3369 64.5616C40.2447 64.7032 40.22 64.8966 40.22 65.0967Z" fill="#9DB4F4"/>
<path d="M41.6963 65.0967C41.6963 64.8719 41.7211 64.5301 42.0314 64.5301C42.3417 64.5301 42.3664 64.8719 42.3664 65.0967C42.3664 65.3216 42.3417 65.6634 42.0314 65.6634C41.7211 65.6634 41.6963 65.3216 41.6963 65.0967ZM41.4782 65.0967C41.4782 65.2969 41.5029 65.4902 41.5951 65.6319C41.6873 65.7713 41.8402 65.859 42.0314 65.859C42.2225 65.859 42.3754 65.7713 42.4676 65.6319C42.5598 65.4902 42.5845 65.2969 42.5845 65.0967C42.5845 64.8966 42.5598 64.7032 42.4676 64.5616C42.3754 64.4222 42.2225 64.3345 42.0314 64.3345C41.8402 64.3345 41.6873 64.4222 41.5951 64.5616C41.5029 64.7032 41.4782 64.8966 41.4782 65.0967Z" fill="#9DB4F4"/>
<path d="M42.9545 65.0967C42.9545 64.8719 42.9793 64.5301 43.2896 64.5301C43.5999 64.5301 43.6246 64.8719 43.6246 65.0967C43.6246 65.3216 43.5999 65.6634 43.2896 65.6634C42.9793 65.6634 42.9545 65.3216 42.9545 65.0967ZM42.7364 65.0967C42.7364 65.2969 42.7612 65.4902 42.8534 65.6319C42.9456 65.7713 43.0985 65.859 43.2896 65.859C43.4807 65.859 43.6336 65.7713 43.7258 65.6319C43.818 65.4902 43.8427 65.2969 43.8427 65.0967C43.8427 64.8966 43.818 64.7032 43.7258 64.5616C43.6336 64.4222 43.4807 64.3345 43.2896 64.3345C43.0985 64.3345 42.9456 64.4222 42.8534 64.5616C42.7612 64.7032 42.7364 64.8966 42.7364 65.0967Z" fill="#9DB4F4"/>
<path d="M44.2128 65.0967C44.2128 64.8719 44.2375 64.5301 44.5478 64.5301C44.8581 64.5301 44.8828 64.8719 44.8828 65.0967C44.8828 65.3216 44.8581 65.6634 44.5478 65.6634C44.2375 65.6634 44.2128 65.3216 44.2128 65.0967ZM43.9947 65.0967C43.9947 65.2969 44.0194 65.4902 44.1116 65.6319C44.2038 65.7713 44.3567 65.859 44.5478 65.859C44.7389 65.859 44.8918 65.7713 44.984 65.6319C45.0762 65.4902 45.101 65.2969 45.101 65.0967C45.101 64.8966 45.0762 64.7032 44.984 64.5616C44.8918 64.4222 44.7389 64.3345 44.5478 64.3345C44.3567 64.3345 44.2038 64.4222 44.1116 64.5616C44.0194 64.7032 43.9947 64.8966 43.9947 65.0967Z" fill="#9DB4F4"/>
<path d="M45.471 65.0967C45.471 64.8719 45.4957 64.5301 45.806 64.5301C46.1163 64.5301 46.1411 64.8719 46.1411 65.0967C46.1411 65.3216 46.1163 65.6634 45.806 65.6634C45.4957 65.6634 45.471 65.3216 45.471 65.0967ZM45.2529 65.0967C45.2529 65.2969 45.2776 65.4902 45.3698 65.6319C45.462 65.7713 45.6149 65.859 45.806 65.859C45.9972 65.859 46.1501 65.7713 46.2423 65.6319C46.3344 65.4902 46.3592 65.2969 46.3592 65.0967C46.3592 64.8966 46.3344 64.7032 46.2423 64.5616C46.1501 64.4222 45.9972 64.3345 45.806 64.3345C45.6149 64.3345 45.462 64.4222 45.3698 64.5616C45.2776 64.7032 45.2529 64.8966 45.2529 65.0967Z" fill="#9DB4F4"/>
<path d="M47.9874 65.0967C47.9874 64.8719 48.0122 64.5301 48.3225 64.5301C48.6328 64.5301 48.6575 64.8719 48.6575 65.0967C48.6575 65.3216 48.6328 65.6634 48.3225 65.6634C48.0122 65.6634 47.9874 65.3216 47.9874 65.0967ZM47.7693 65.0967C47.7693 65.2969 47.7941 65.4902 47.8863 65.6319C47.9785 65.7713 48.1314 65.859 48.3225 65.859C48.5136 65.859 48.6665 65.7713 48.7587 65.6319C48.8509 65.4902 48.8756 65.2969 48.8756 65.0967C48.8756 64.8966 48.8509 64.7032 48.7587 64.5616C48.6665 64.4222 48.5136 64.3345 48.3225 64.3345C48.1314 64.3345 47.9785 64.4222 47.8863 64.5616C47.7941 64.7032 47.7693 64.8966 47.7693 65.0967Z" fill="#9DB4F4"/>
<path d="M49.2457 65.0967C49.2457 64.8719 49.2704 64.5301 49.5807 64.5301C49.891 64.5301 49.9157 64.8719 49.9157 65.0967C49.9157 65.3216 49.891 65.6634 49.5807 65.6634C49.2704 65.6634 49.2457 65.3216 49.2457 65.0967ZM49.0276 65.0967C49.0276 65.2969 49.0523 65.4902 49.1445 65.6319C49.2367 65.7713 49.3896 65.859 49.5807 65.859C49.7718 65.859 49.9247 65.7713 50.0169 65.6319C50.1091 65.4902 50.1339 65.2969 50.1339 65.0967C50.1339 64.8966 50.1091 64.7032 50.0169 64.5616C49.9247 64.4222 49.7718 64.3345 49.5807 64.3345C49.3896 64.3345 49.2367 64.4222 49.1445 64.5616C49.0523 64.7032 49.0276 64.8966 49.0276 65.0967Z" fill="#9DB4F4"/>
<path d="M50.4454 65.6274V65.8253H51.3786V65.6274H51.0278V64.3682H50.8344C50.8007 64.5256 50.6613 64.638 50.4589 64.6425V64.7977H50.8119V65.6274H50.4454Z" fill="#9DB4F4"/>
<path d="M51.7037 65.6274V65.8253H52.6368V65.6274H52.286V64.3682H52.0927C52.0589 64.5256 51.9195 64.638 51.7172 64.6425V64.7977H52.0702V65.6274H51.7037Z" fill="#9DB4F4"/>
<path d="M53.0203 65.0967C53.0203 64.8719 53.0451 64.5301 53.3554 64.5301C53.6657 64.5301 53.6904 64.8719 53.6904 65.0967C53.6904 65.3216 53.6657 65.6634 53.3554 65.6634C53.0451 65.6634 53.0203 65.3216 53.0203 65.0967ZM52.8022 65.0967C52.8022 65.2969 52.827 65.4902 52.9192 65.6319C53.0114 65.7713 53.1643 65.859 53.3554 65.859C53.5465 65.859 53.6994 65.7713 53.7916 65.6319C53.8838 65.4902 53.9085 65.2969 53.9085 65.0967C53.9085 64.8966 53.8838 64.7032 53.7916 64.5616C53.6994 64.4222 53.5465 64.3345 53.3554 64.3345C53.1643 64.3345 53.0114 64.4222 52.9192 64.5616C52.827 64.7032 52.8022 64.8966 52.8022 65.0967Z" fill="#9DB4F4"/>
<path d="M54.2201 65.6274V65.8253H55.1533V65.6274H54.8025V64.3682H54.6091C54.5754 64.5256 54.436 64.638 54.2336 64.6425V64.7977H54.5866V65.6274H54.2201Z" fill="#9DB4F4"/>
<path d="M55.4783 65.6274V65.8253H56.4115V65.6274H56.0607V64.3682H55.8673C55.8336 64.5256 55.6942 64.638 55.4918 64.6425V64.7977H55.8448V65.6274H55.4783Z" fill="#9DB4F4"/>
<path d="M56.7366 65.6274V65.8253H57.6697V65.6274H57.3189V64.3682H57.1256C57.0918 64.5256 56.9524 64.638 56.75 64.6425V64.7977H57.1031V65.6274H56.7366Z" fill="#9DB4F4"/>
<path d="M36.6634 68.4698C36.6634 68.2449 36.6882 67.9031 36.9985 67.9031C37.3088 67.9031 37.3335 68.2449 37.3335 68.4698C37.3335 68.6946 37.3088 69.0364 36.9985 69.0364C36.6882 69.0364 36.6634 68.6946 36.6634 68.4698ZM36.4453 68.4698C36.4453 68.6699 36.47 68.8633 36.5622 69.0049C36.6544 69.1443 36.8073 69.232 36.9985 69.232C37.1896 69.232 37.3425 69.1443 37.4347 69.0049C37.5269 68.8633 37.5516 68.6699 37.5516 68.4698C37.5516 68.2697 37.5269 68.0763 37.4347 67.9346C37.3425 67.7952 37.1896 67.7075 36.9985 67.7075C36.8073 67.7075 36.6544 67.7952 36.5622 67.9346C36.47 68.0763 36.4453 68.2697 36.4453 68.4698Z" fill="#9DB4F4"/>
<path d="M37.9216 68.4698C37.9216 68.2449 37.9464 67.9031 38.2567 67.9031C38.567 67.9031 38.5917 68.2449 38.5917 68.4698C38.5917 68.6946 38.567 69.0364 38.2567 69.0364C37.9464 69.0364 37.9216 68.6946 37.9216 68.4698ZM37.7035 68.4698C37.7035 68.6699 37.7283 68.8633 37.8205 69.0049C37.9127 69.1443 38.0656 69.232 38.2567 69.232C38.4478 69.232 38.6007 69.1443 38.6929 69.0049C38.7851 68.8633 38.8098 68.6699 38.8098 68.4698C38.8098 68.2697 38.7851 68.0763 38.6929 67.9346C38.6007 67.7952 38.4478 67.7075 38.2567 67.7075C38.0656 67.7075 37.9127 67.7952 37.8205 67.9346C37.7283 68.0763 37.7035 68.2697 37.7035 68.4698Z" fill="#9DB4F4"/>
<path d="M39.1214 69.0004V69.1983H40.0546V69.0004H39.7038V67.7412H39.5104C39.4767 67.8986 39.3373 68.0111 39.1349 68.0156V68.1707H39.4879V69.0004H39.1214Z" fill="#9DB4F4"/>
<path d="M40.3796 69.0004V69.1983H41.3128V69.0004H40.962V67.7412H40.7686C40.7349 67.8986 40.5955 68.0111 40.3931 68.0156V68.1707H40.7461V69.0004H40.3796Z" fill="#9DB4F4"/>
<path d="M41.6963 68.4698C41.6963 68.2449 41.7211 67.9031 42.0314 67.9031C42.3417 67.9031 42.3664 68.2449 42.3664 68.4698C42.3664 68.6946 42.3417 69.0364 42.0314 69.0364C41.7211 69.0364 41.6963 68.6946 41.6963 68.4698ZM41.4782 68.4698C41.4782 68.6699 41.5029 68.8633 41.5951 69.0049C41.6873 69.1443 41.8402 69.232 42.0314 69.232C42.2225 69.232 42.3754 69.1443 42.4676 69.0049C42.5598 68.8633 42.5845 68.6699 42.5845 68.4698C42.5845 68.2697 42.5598 68.0763 42.4676 67.9346C42.3754 67.7952 42.2225 67.7075 42.0314 67.7075C41.8402 67.7075 41.6873 67.7952 41.5951 67.9346C41.5029 68.0763 41.4782 68.2697 41.4782 68.4698Z" fill="#9DB4F4"/>
<path d="M42.8961 69.0004V69.1983H43.8292V69.0004H43.4785V67.7412H43.2851C43.2514 67.8986 43.1119 68.0111 42.9096 68.0156V68.1707H43.2626V69.0004H42.8961Z" fill="#9DB4F4"/>
<path d="M44.1543 69.0004V69.1983H45.0875V69.0004H44.7367V67.7412H44.5433C44.5096 67.8986 44.3702 68.0111 44.1678 68.0156V68.1707H44.5208V69.0004H44.1543Z" fill="#9DB4F4"/>
<path d="M45.4125 69.0004V69.1983H46.3457V69.0004H45.9949V67.7412H45.8015C45.7678 67.8986 45.6284 68.0111 45.426 68.0156V68.1707H45.779V69.0004H45.4125Z" fill="#9DB4F4"/>
<path d="M47.9874 68.4698C47.9874 68.2449 48.0122 67.9031 48.3225 67.9031C48.6328 67.9031 48.6575 68.2449 48.6575 68.4698C48.6575 68.6946 48.6328 69.0364 48.3225 69.0364C48.0122 69.0364 47.9874 68.6946 47.9874 68.4698ZM47.7693 68.4698C47.7693 68.6699 47.7941 68.8633 47.8863 69.0049C47.9785 69.1443 48.1314 69.232 48.3225 69.232C48.5136 69.232 48.6665 69.1443 48.7587 69.0049C48.8509 68.8633 48.8756 68.6699 48.8756 68.4698C48.8756 68.2697 48.8509 68.0763 48.7587 67.9346C48.6665 67.7952 48.5136 67.7075 48.3225 67.7075C48.1314 67.7075 47.9785 67.7952 47.8863 67.9346C47.7941 68.0763 47.7693 68.2697 47.7693 68.4698Z" fill="#9DB4F4"/>
<path d="M49.2457 68.4698C49.2457 68.2449 49.2704 67.9031 49.5807 67.9031C49.891 67.9031 49.9157 68.2449 49.9157 68.4698C49.9157 68.6946 49.891 69.0364 49.5807 69.0364C49.2704 69.0364 49.2457 68.6946 49.2457 68.4698ZM49.0276 68.4698C49.0276 68.6699 49.0523 68.8633 49.1445 69.0049C49.2367 69.1443 49.3896 69.232 49.5807 69.232C49.7718 69.232 49.9247 69.1443 50.0169 69.0049C50.1091 68.8633 50.1339 68.6699 50.1339 68.4698C50.1339 68.2697 50.1091 68.0763 50.0169 67.9346C49.9247 67.7952 49.7718 67.7075 49.5807 67.7075C49.3896 67.7075 49.2367 67.7952 49.1445 67.9346C49.0523 68.0763 49.0276 68.2697 49.0276 68.4698Z" fill="#9DB4F4"/>
<path d="M50.4454 69.0004V69.1983H51.3786V69.0004H51.0278V67.7412H50.8344C50.8007 67.8986 50.6613 68.0111 50.4589 68.0156V68.1707H50.8119V69.0004H50.4454Z" fill="#9DB4F4"/>
<path d="M51.7037 69.0004V69.1983H52.6368V69.0004H52.286V67.7412H52.0927C52.0589 67.8986 51.9195 68.0111 51.7172 68.0156V68.1707H52.0702V69.0004H51.7037Z" fill="#9DB4F4"/>
<path d="M53.0203 68.4698C53.0203 68.2449 53.0451 67.9031 53.3554 67.9031C53.6657 67.9031 53.6904 68.2449 53.6904 68.4698C53.6904 68.6946 53.6657 69.0364 53.3554 69.0364C53.0451 69.0364 53.0203 68.6946 53.0203 68.4698ZM52.8022 68.4698C52.8022 68.6699 52.827 68.8633 52.9192 69.0049C53.0114 69.1443 53.1643 69.232 53.3554 69.232C53.5465 69.232 53.6994 69.1443 53.7916 69.0049C53.8838 68.8633 53.9085 68.6699 53.9085 68.4698C53.9085 68.2697 53.8838 68.0763 53.7916 67.9346C53.6994 67.7952 53.5465 67.7075 53.3554 67.7075C53.1643 67.7075 53.0114 67.7952 52.9192 67.9346C52.827 68.0763 52.8022 68.2697 52.8022 68.4698Z" fill="#9DB4F4"/>
<path d="M54.2201 69.0004V69.1983H55.1533V69.0004H54.8025V67.7412H54.6091C54.5754 67.8986 54.436 68.0111 54.2336 68.0156V68.1707H54.5866V69.0004H54.2201Z" fill="#9DB4F4"/>
<path d="M55.4783 69.0004V69.1983H56.4115V69.0004H56.0607V67.7412H55.8673C55.8336 67.8986 55.6942 68.0111 55.4918 68.0156V68.1707H55.8448V69.0004H55.4783Z" fill="#9DB4F4"/>
<path d="M56.7366 69.0004V69.1983H57.6697V69.0004H57.3189V67.7412H57.1256C57.0918 67.8986 56.9524 68.0111 56.75 68.0156V68.1707H57.1031V69.0004H56.7366Z" fill="#9DB4F4"/>
<path d="M98.3887 127.589C114.153 127.589 126.933 114.809 126.933 99.0444C126.933 83.2798 114.153 70.5 98.3887 70.5C82.624 70.5 69.8442 83.2798 69.8442 99.0444C69.8442 114.809 82.624 127.589 98.3887 127.589Z" fill="url(#paint4_linear_626_5981)"/>
<path d="M98.3889 125.079C112.767 125.079 124.423 113.423 124.423 99.0447C124.423 84.6663 112.767 73.0103 98.3889 73.0103C84.0105 73.0103 72.3545 84.6663 72.3545 99.0447C72.3545 113.423 84.0105 125.079 98.3889 125.079Z" fill="url(#paint5_linear_626_5981)"/>
<g filter="url(#filter0_d_626_5981)">
<path d="M90.7779 88.0564C89.8453 87.1238 88.3332 87.1238 87.4006 88.0564C86.468 88.989 86.468 90.501 87.4006 91.4336L95.0115 99.0445L87.4006 106.655C86.468 107.588 86.468 109.1 87.4006 110.033C88.3332 110.965 89.8453 110.965 90.7779 110.033L98.3888 102.422L105.999 110.032C106.932 110.965 108.444 110.965 109.377 110.032C110.309 109.1 110.309 107.588 109.377 106.655L101.766 99.0445L109.377 91.4338C110.309 90.5012 110.309 88.9892 109.377 88.0566C108.444 87.124 106.932 87.124 105.999 88.0566L98.3888 95.6673L90.7779 88.0564Z" fill="white"/>
</g>
<defs>
<filter id="filter0_d_626_5981" x="64.7012" y="85.3569" width="73.375" height="73.375" filterUnits="userSpaceOnUse" color-interpolation-filters="sRGB">
<feFlood flood-opacity="0" result="BackgroundImageFix"/>
<feColorMatrix in="SourceAlpha" type="matrix" values="0 0 0 0 0 0 0 0 0 0 0 0 0 0 0 0 0 0 127 0" result="hardAlpha"/>
<feOffset dx="3" dy="23"/>
<feGaussianBlur stdDeviation="12.5"/>
<feComposite in2="hardAlpha" operator="out"/>
<feColorMatrix type="matrix" values="0 0 0 0 0.215686 0 0 0 0 0.356863 0 0 0 0 0.823529 0 0 0 1 0"/>
<feBlend mode="normal" in2="BackgroundImageFix" result="effect1_dropShadow_626_5981"/>
<feBlend mode="normal" in="SourceGraphic" in2="effect1_dropShadow_626_5981" result="shape"/>
</filter>
<linearGradient id="paint0_linear_626_5981" x1="38.929" y1="74.3942" x2="81.0734" y2="116.468" gradientUnits="userSpaceOnUse">
<stop stop-color="#10141E"/>
<stop offset="0.54" stop-color="#181D29"/>
<stop offset="1" stop-color="#10141E"/>
</linearGradient>
<linearGradient id="paint1_linear_626_5981" x1="63.5265" y1="50.1069" x2="64.876" y2="50.1069" gradientUnits="userSpaceOnUse">
<stop stop-color="#2A5ADA"/>
<stop offset="1" stop-color="#2A5ADA" stop-opacity="0.8"/>
</linearGradient>
<linearGradient id="paint2_linear_626_5981" x1="65.7998" y1="50.1069" x2="67.1484" y2="50.1069" gradientUnits="userSpaceOnUse">
<stop stop-color="#2A5ADA"/>
<stop offset="1" stop-color="#2A5ADA" stop-opacity="0.8"/>
</linearGradient>
<linearGradient id="paint3_linear_626_5981" x1="68.0713" y1="50.1069" x2="69.4199" y2="50.1069" gradientUnits="userSpaceOnUse">
<stop stop-color="#2A5ADA"/>
<stop offset="1" stop-color="#2A5ADA" stop-opacity="0.8"/>
</linearGradient>
<linearGradient id="paint4_linear_626_5981" x1="76.0347" y1="46.5912" x2="108.36" y2="122.441" gradientUnits="userSpaceOnUse">
<stop stop-color="#6F88DB"/>
<stop offset="1" stop-color="#375ACD"/>
</linearGradient>
<linearGradient id="paint5_linear_626_5981" x1="88.1326" y1="74.9786" x2="117.615" y2="144.159" gradientUnits="userSpaceOnUse">
<stop stop-color="#375BD2"/>
<stop offset="1" stop-color="#375BD2"/>
</linearGradient>
</defs>
</svg>
