<svg width="16" height="17" viewBox="0 0 16 17" fill="none" xmlns="http://www.w3.org/2000/svg">
<g clip-path="url(#clip0_406_14111)">
<path d="M15.4997 0.5H10.1664C10.0671 0.499864 9.97005 0.529699 9.88798 0.585603C9.80591 0.641507 9.74262 0.720877 9.70639 0.813334C9.6685 0.903754 9.65841 1.00341 9.67741 1.09959C9.69641 1.19577 9.74363 1.28411 9.81305 1.35333L11.9997 3.50667L5.69972 9.70667C5.57555 9.83158 5.50586 10.0005 5.50586 10.1767C5.50586 10.3528 5.57555 10.5218 5.69972 10.6467C5.76146 10.7097 5.83509 10.7598 5.91634 10.7941C5.99759 10.8284 6.08485 10.8463 6.17305 10.8467C6.34701 10.8477 6.51448 10.7807 6.63972 10.66L12.9597 4.44L15.1531 6.6C15.1992 6.64674 15.2543 6.68379 15.3149 6.70898C15.3756 6.73416 15.4407 6.74698 15.5064 6.74667C15.5729 6.74687 15.6387 6.73325 15.6997 6.70667C15.7897 6.66836 15.8662 6.60417 15.9196 6.52227C15.9731 6.44037 16.0009 6.34444 15.9997 6.24667V1C15.998 0.867929 15.9448 0.741753 15.8514 0.648356C15.758 0.55496 15.6318 0.501727 15.4997 0.5Z" fill="#578AFF"/>
<path d="M12.3333 7.58C12.1565 7.58 11.987 7.65024 11.8619 7.77526C11.7369 7.90029 11.6667 8.06986 11.6667 8.24667V15.1667H1.33333V4.83333H8.24667C8.42348 4.83333 8.59305 4.7631 8.71807 4.63807C8.8431 4.51305 8.91333 4.34348 8.91333 4.16667C8.91333 3.98986 8.8431 3.82029 8.71807 3.69526C8.59305 3.57024 8.42348 3.5 8.24667 3.5H1.24667C0.91603 3.5 0.598936 3.63134 0.36514 3.86514C0.131345 4.09894 1.25595e-10 4.41603 1.25595e-10 4.74667L1.25595e-10 15.2467C-4.68603e-06 15.5779 0.131127 15.8957 0.364733 16.1306C0.598338 16.3654 0.915419 16.4982 1.24667 16.5H11.7467C12.0791 16.5 12.3979 16.368 12.6329 16.1329C12.868 15.8979 13 15.5791 13 15.2467V8.24667C13 8.06986 12.9298 7.90029 12.8047 7.77526C12.6797 7.65024 12.5101 7.58 12.3333 7.58Z" fill="#578AFF"/>
</g>
<defs>
<clipPath id="clip0_406_14111">
<rect width="16" height="16" fill="white" transform="translate(0 0.5)"/>
</clipPath>
</defs>
</svg>
