<svg width="17" height="16" viewBox="0 0 17 16" fill="none" xmlns="http://www.w3.org/2000/svg">
    <g id="GitHub" clip-path="url(#clip0_223_15516)">
        <path id="vector" fill-rule="evenodd" clip-rule="evenodd"
            d="M8.5 0C4.08011 0 0.5 3.58011 0.5 8C0.5 11.5359 2.79343 14.5316 5.97084 15.5924C6.36863 15.6661 6.51596 15.4205 6.51596 15.2044C6.51596 15.0129 6.51105 14.512 6.50614 13.8441C4.28146 14.3254 3.81001 12.7735 3.81001 12.7735C3.44659 11.8502 2.92112 11.5998 2.92112 11.5998C2.19429 11.1037 2.97514 11.1136 2.97514 11.1136C3.77563 11.1725 4.20288 11.9386 4.20288 11.9386C4.91498 13.1614 6.07397 12.8079 6.53069 12.6016C6.60436 12.0859 6.81062 11.7324 7.03653 11.531C5.26366 11.3346 3.39748 10.647 3.39748 7.58257C3.39748 6.70841 3.70688 5.99632 4.22253 5.43646C4.13904 5.2302 3.86403 4.41989 4.29619 3.31983C4.29619 3.31983 4.969 3.10374 6.49632 4.13996C7.13474 3.96317 7.81737 3.87477 8.5 3.86986C9.17772 3.87477 9.86525 3.96317 10.5037 4.13996C12.031 3.10374 12.7038 3.31983 12.7038 3.31983C13.1409 4.41989 12.8659 5.23511 12.7824 5.43646C13.2931 5.99632 13.6025 6.70841 13.6025 7.58257C13.6025 10.6568 11.7314 11.3296 9.94874 11.531C10.2336 11.7765 10.4939 12.2676 10.4939 13.0141C10.4939 14.0847 10.484 14.9441 10.484 15.2093C10.484 15.4254 10.6265 15.671 11.0341 15.5924C14.2115 14.5316 16.5 11.5359 16.5 8.00491C16.5 3.58011 12.9199 0 8.5 0Z"
            fill="white" />
    </g>
    <defs>
        <clipPath id="clip0_223_15516">
            <rect width="16" height="16" fill="white" transform="translate(0.5)" />
        </clipPath>
    </defs>
</svg>