<svg width="22" height="23" viewBox="0 0 22 23" fill="none" xmlns="http://www.w3.org/2000/svg">
    <g id="chainlink-uptime">
        <g id="Vector">
            <path
                d="M9.65812 21.4111C7.81121 21.1609 6.07097 20.3995 4.63372 19.2129C3.19647 18.0263 2.1194 16.4617 1.52401 14.6956C0.928626 12.9295 0.838617 11.0321 1.26414 9.21753C1.68966 7.40297 2.61378 5.74343 3.93225 4.4261C5.25072 3.10878 6.91107 2.1861 8.726 1.76216C10.5409 1.33821 12.4382 1.42987 14.2038 2.02679C15.9694 2.62371 17.5331 3.70214 18.7185 5.14042C19.9038 6.57871 20.6637 8.31961 20.9123 10.1667"
                fill="#181D29" />
            <path
                d="M9.65812 21.4111C7.81121 21.1609 6.07097 20.3995 4.63372 19.2129C3.19647 18.0263 2.1194 16.4617 1.52401 14.6956C0.928626 12.9295 0.838617 11.0321 1.26414 9.21753C1.68966 7.40297 2.61378 5.74343 3.93225 4.4261C5.25072 3.10878 6.91107 2.1861 8.726 1.76216C10.5409 1.33821 12.4382 1.42987 14.2038 2.02679C15.9694 2.62371 17.5331 3.70214 18.7185 5.14042C19.9038 6.57871 20.6636 8.31961 20.9123 10.1667"
                stroke="#4771D1" stroke-width="1.5" stroke-linecap="round" stroke-linejoin="round" />
        </g>
        <g id="Vector_2">
            <path
                d="M8.59159 21.2076C7.2396 19.2236 6.33472 15.6183 6.33472 11.5001C6.33472 7.3819 7.2396 3.77748 8.59159 1.7926"
                fill="#181D29" />
            <path
                d="M8.59159 21.2076C7.2396 19.2236 6.33472 15.6183 6.33472 11.5001C6.33472 7.3819 7.2396 3.77748 8.59159 1.7926"
                stroke="#4771D1" stroke-width="1.5" stroke-linecap="round" stroke-linejoin="round" />
        </g>
        <path id="Vector_3" d="M1.02344 10.8334H9.66783" stroke="#4771D1" stroke-width="1.5" stroke-linecap="round"
            stroke-linejoin="round" />
        <path id="Vector_4" d="M3.00049 5.50012H19.0013" stroke="#4771D1" stroke-width="1.5" stroke-linecap="round"
            stroke-linejoin="round" />
        <path id="Vector_5" d="M2.15527 16.1667H6.74725" stroke="#4771D1" stroke-width="1.5" stroke-linecap="round"
            stroke-linejoin="round" />
        <g id="Vector_6">
            <path d="M13.4109 1.7926C14.5608 3.73417 15.2614 5.90849 15.4615 8.15612L13.4109 1.7926Z" fill="#181D29" />
            <path d="M13.4109 1.7926C14.5608 3.73417 15.2614 5.9085 15.4615 8.15612" stroke="#4771D1" stroke-width="1.5"
                stroke-linecap="round" stroke-linejoin="round" />
        </g>
        <path id="Vector_7"
            d="M15.6678 21.5C18.6133 21.5 21.0011 19.1122 21.0011 16.1667C21.0011 13.2212 18.6133 10.8334 15.6678 10.8334C12.7223 10.8334 10.3345 13.2212 10.3345 16.1667C10.3345 19.1122 12.7223 21.5 15.6678 21.5Z"
            fill="#181D29" stroke="#4771D1" stroke-width="1.5" stroke-linecap="round" stroke-linejoin="round" />
        <path id="Polygon 2"
            d="M13.5311 15.0441L15.6678 13.8105L17.8046 15.0441V17.5114L15.6678 18.7451L13.5311 17.5114V15.0441Z"
            stroke="white" stroke-width="1.5" />
    </g>
</svg>