<svg width="20" height="20" viewBox="0 0 20 20" fill="none" xmlns="http://www.w3.org/2000/svg">
    <g id="Frame">
        <path id="Vector" fill-rule="evenodd" clip-rule="evenodd"
            d="M2.48393 4.54395C2.41973 4.55348 2.32139 4.58278 2.25372 4.61253C2.06753 4.69439 1.88356 4.87263 1.78766 5.06404C1.69442 5.25016 1.6731 5.50597 1.7323 5.7282C1.8077 6.01128 2.05227 6.26773 2.3384 6.36379C2.48085 6.4116 1.85261 6.40798 10.0005 6.40801C16.7754 6.40804 17.46 6.40688 17.5285 6.39532C17.8167 6.34671 18.0751 6.15126 18.2072 5.88199C18.2611 5.77233 18.2837 5.68857 18.2951 5.55692C18.3204 5.26632 18.2284 5.01231 18.024 4.80792C17.9014 4.68529 17.7681 4.60742 17.6027 4.56179L17.5239 4.54004L10.0239 4.53903C5.89893 4.53847 2.50593 4.54068 2.48393 4.54395ZM2.47821 9.07645C2.31057 9.10256 2.15289 9.17785 2.02306 9.29381C1.90215 9.40182 1.82425 9.50756 1.76867 9.63914C1.69195 9.82077 1.6776 10.0689 1.73258 10.2631C1.77379 10.4087 1.86729 10.5631 1.98097 10.6733C2.14251 10.83 2.33021 10.9163 2.55193 10.9358C2.67789 10.9469 17.3099 10.9469 17.4437 10.9359C17.6622 10.9178 17.8418 10.8379 18.0032 10.6872C18.175 10.5268 18.2767 10.3183 18.2952 10.0891C18.318 9.80453 18.235 9.56134 18.048 9.36491C17.8876 9.19644 17.723 9.10799 17.51 9.07581C17.4418 9.06551 16.5027 9.06414 9.98998 9.06482C3.76597 9.06547 2.53652 9.06737 2.47821 9.07645ZM2.54203 13.6007C2.33817 13.6176 2.14533 13.7065 1.9892 13.8556C1.86827 13.9712 1.77516 14.1226 1.73258 14.273C1.6776 14.4672 1.69195 14.7153 1.76867 14.8969C1.82425 15.0285 1.90215 15.1343 2.02306 15.2423C2.15401 15.3592 2.30573 15.4314 2.48014 15.4597C2.54791 15.4707 3.34285 15.472 9.99593 15.472C16.4133 15.4719 17.4464 15.4704 17.512 15.4605C17.7021 15.4318 17.8593 15.3536 18.0032 15.2161C18.2239 15.0052 18.3198 14.7531 18.2953 14.4483C18.2752 14.1983 18.1609 13.9801 17.9631 13.8136C17.808 13.6832 17.6468 13.6171 17.4424 13.6001C17.3268 13.5905 2.65806 13.5911 2.54203 13.6007Z"
            fill="white" />
    </g>
</svg>