<svg width="24" height="24" viewBox="0 0 24 24" fill="none" xmlns="http://www.w3.org/2000/svg">
    <g id="weather-cloud-rain-2">
        <g id="Group">
            <path id="Vector"
                d="M20.8399 7.07C20.812 7.04676 20.7895 7.01773 20.774 6.98492C20.7584 6.95211 20.7502 6.9163 20.7499 6.88C20.7144 5.22539 20.0938 3.63687 18.9983 2.39638C17.9028 1.1559 16.4031 0.343705 14.7656 0.103949C13.1281 -0.135807 11.4586 0.212388 10.0534 1.08673C8.64821 1.96108 7.59827 3.30501 7.08992 4.88C7.06878 4.91913 7.03675 4.95129 6.9977 4.97259C6.95866 4.99389 6.91427 5.00341 6.86993 5C5.41123 5.05039 4.03231 5.67818 3.03649 6.74526C2.04067 7.81234 1.50953 9.23131 1.55993 10.69C1.61032 12.1487 2.23811 13.5276 3.30519 14.5234C4.37227 15.5193 5.79123 16.0504 7.24993 16H17.7499C18.7894 15.9998 19.803 15.6755 20.6497 15.0724C21.4963 14.4694 22.134 13.6174 22.4739 12.635C22.8138 11.6527 22.8391 10.5888 22.5463 9.59137C22.2534 8.59397 21.657 7.71265 20.8399 7.07ZM20.7499 11C20.7499 11.7956 20.4339 12.5587 19.8712 13.1213C19.3086 13.6839 18.5456 14 17.7499 14H7.24993C6.32167 14 5.43143 13.6313 4.77505 12.9749C4.11867 12.3185 3.74993 11.4283 3.74993 10.5C3.74993 9.57174 4.11867 8.6815 4.77505 8.02513C5.43143 7.36875 6.32167 7 7.24993 7C7.39976 6.99006 7.55009 6.99006 7.69992 7C7.95196 7.03267 8.20698 6.96815 8.41316 6.81955C8.61934 6.67096 8.7612 6.44943 8.80992 6.2C9.00464 4.9536 9.66331 3.82686 10.6539 3.0457C11.6444 2.26453 12.8937 1.88667 14.1511 1.98787C15.4086 2.08908 16.5813 2.66186 17.4342 3.5914C18.2871 4.52093 18.757 5.7385 18.7499 7V7.43C18.7242 7.62753 18.758 7.82824 18.8471 8.0064C18.9362 8.18457 19.0765 8.33207 19.2499 8.43C19.7019 8.69091 20.078 9.0652 20.341 9.51591C20.6041 9.96662 20.745 10.4782 20.7499 11Z"
                fill="#B7BAC0" />
            <path id="Vector_2"
                d="M7.77983 17.47C7.6392 17.3296 7.44858 17.2507 7.24983 17.2507C7.05108 17.2507 6.86045 17.3296 6.71983 17.47L1.46983 22.72C1.32938 22.8606 1.25049 23.0513 1.25049 23.25C1.25049 23.4488 1.32938 23.6394 1.46983 23.78C1.61045 23.9205 1.80108 23.9994 1.99983 23.9994C2.19858 23.9994 2.3892 23.9205 2.52983 23.78L7.77983 18.53C7.92028 18.3894 7.99917 18.1988 7.99917 18C7.99917 17.8013 7.92028 17.6106 7.77983 17.47Z"
                fill="#4771D1" />
            <path id="Vector_3"
                d="M12.2796 17.47C12.139 17.3296 11.9484 17.2507 11.7496 17.2507C11.5509 17.2507 11.3602 17.3296 11.2196 17.47L5.99961 22.72C5.85916 22.8606 5.78027 23.0513 5.78027 23.25C5.78027 23.4488 5.85916 23.6394 5.99961 23.78C6.14024 23.9205 6.33086 23.9994 6.52961 23.9994C6.72836 23.9994 6.91899 23.9205 7.05961 23.78L12.3096 18.53C12.4462 18.3854 12.5197 18.1926 12.5141 17.9938C12.5085 17.795 12.4241 17.6066 12.2796 17.47Z"
                fill="#4771D1" />
            <path id="Vector_4"
                d="M16.7798 17.47C16.6392 17.3296 16.4486 17.2507 16.2498 17.2507C16.0511 17.2507 15.8605 17.3296 15.7198 17.47L10.4698 22.72C10.3294 22.8606 10.2505 23.0513 10.2505 23.25C10.2505 23.4488 10.3294 23.6394 10.4698 23.78C10.6105 23.9205 10.8011 23.9994 10.9998 23.9994C11.1986 23.9994 11.3892 23.9205 11.5298 23.78L16.7798 18.53C16.9203 18.3894 16.9992 18.1988 16.9992 18C16.9992 17.8013 16.9203 17.6106 16.7798 17.47Z"
                fill="#4771D1" />
        </g>
    </g>
</svg>