<svg width="16" height="16" viewBox="0 0 16 16" fill="none" xmlns="http://www.w3.org/2000/svg">
    <g id="Icon" clip-path="url(#clip0_160_9486)">
        <path id="Vector"
            d="M7.10967 13.382C6.89334 13.3372 6.66807 13.3801 6.48341 13.5014C6.29875 13.6227 6.16982 13.8123 6.125 14.0287C6.08018 14.245 6.12313 14.4703 6.2444 14.6549C6.36568 14.8396 6.55534 14.9685 6.77167 15.0133C8.3366 15.3361 9.96453 15.1262 11.3963 14.4168C12.8281 13.7074 13.9814 12.5395 14.6727 11.0989C15.364 9.65828 15.5535 8.02783 15.211 6.46709C14.8685 4.90635 14.0137 3.50505 12.7828 2.48625C11.5518 1.46746 10.0154 0.88975 8.41815 0.845084C6.8209 0.800419 5.25461 1.29137 3.96864 2.23978C2.68267 3.18819 1.75094 4.53954 1.32176 6.07869C0.89259 7.61785 0.990651 9.25635 1.60033 10.7333C1.61501 10.7681 1.61747 10.8068 1.6073 10.8431C1.59712 10.8795 1.57493 10.9113 1.54433 10.9333L0.877668 11.4173C0.77344 11.493 0.693348 11.5972 0.647072 11.7173C0.600795 11.8375 0.590315 11.9685 0.616898 12.0945C0.64348 12.2205 0.705988 12.3361 0.796867 12.4274C0.887745 12.5186 1.0031 12.5816 1.129 12.6087L3.75967 13.1747C3.80573 13.1842 3.85263 13.1891 3.89967 13.1893C4.0522 13.1894 4.20013 13.1371 4.31878 13.0413C4.43744 12.9454 4.51964 12.8118 4.55167 12.6627L5.18167 9.72933C5.21011 9.59739 5.19784 9.45993 5.14647 9.33511C5.09511 9.2103 5.00706 9.10402 4.89399 9.03032C4.78092 8.95662 4.64814 8.91898 4.51321 8.92238C4.37828 8.92577 4.24756 8.97004 4.13833 9.04933L3.231 9.70866C3.20958 9.72428 3.18474 9.73455 3.15854 9.73864C3.13235 9.74272 3.10556 9.7405 3.0804 9.73216C3.05523 9.72381 3.03242 9.70959 3.01386 9.69066C2.9953 9.67173 2.98152 9.64865 2.97367 9.62333C2.61703 8.47012 2.64944 7.23163 3.06591 6.09864C3.48238 4.96566 4.2598 4.00103 5.27843 3.35334C6.29705 2.70565 7.50038 2.41083 8.70304 2.5143C9.9057 2.61776 11.041 3.11377 11.934 3.92592C12.8271 4.73807 13.4283 5.82131 13.6451 7.00878C13.862 8.19625 13.6824 9.42207 13.134 10.4974C12.5857 11.5728 11.6989 12.438 10.6105 12.9599C9.52199 13.4817 8.29213 13.6312 7.11034 13.3853L7.10967 13.382Z"
            fill="#B7BAC0" />
    </g>
    <defs>
        <clipPath id="clip0_160_9486">
            <rect width="16" height="16" fill="white" />
        </clipPath>
    </defs>
</svg>