<svg width="24" height="24" viewBox="0 0 24 24" fill="none" xmlns="http://www.w3.org/2000/svg">
    <g id="weather-cloud-snow-4">
        <g id="Group">
            <path id="Vector"
                d="M20.5899 7.07C20.562 7.04676 20.5395 7.01773 20.524 6.98492C20.5084 6.95211 20.5002 6.9163 20.4999 6.88C20.4644 5.22539 19.8438 3.63687 18.7483 2.39638C17.6528 1.1559 16.1531 0.343705 14.5156 0.103949C12.8781 -0.135807 11.2086 0.212388 9.80338 1.08673C8.39821 1.96108 7.34827 3.30501 6.83992 4.88C6.81878 4.91913 6.78675 4.95129 6.7477 4.97259C6.70866 4.99389 6.66427 5.00341 6.61993 5C5.16123 5.05039 3.78231 5.67818 2.78649 6.74526C1.79067 7.81234 1.25953 9.23131 1.30993 10.69C1.36032 12.1487 1.98811 13.5276 3.05519 14.5234C4.12227 15.5193 5.54123 16.0504 6.99992 16H17.4999C18.5394 15.9998 19.553 15.6755 20.3997 15.0724C21.2463 14.4694 21.884 13.6174 22.2239 12.635C22.5638 11.6527 22.5891 10.5888 22.2963 9.59137C22.0034 8.59397 21.407 7.71265 20.5899 7.07ZM17.4999 14H6.99992C6.07167 14 5.18143 13.6313 4.52505 12.9749C3.86867 12.3185 3.49993 11.4283 3.49993 10.5C3.49993 9.57174 3.86867 8.6815 4.52505 8.02513C5.18143 7.36875 6.07167 7 6.99992 7C7.14976 6.99006 7.30009 6.99006 7.44992 7C7.70196 7.03267 7.95698 6.96815 8.16316 6.81955C8.36934 6.67096 8.5112 6.44943 8.55993 6.2C8.75464 4.9536 9.41331 3.82686 10.4039 3.0457C11.3944 2.26453 12.6437 1.88667 13.9011 1.98787C15.1586 2.08908 16.3313 2.66186 17.1842 3.5914C18.0371 4.52093 18.507 5.7385 18.4999 7V7.43C18.4742 7.62753 18.508 7.82824 18.5971 8.0064C18.6862 8.18457 18.8265 8.33207 18.9999 8.43C19.5583 8.76606 19.9921 9.27482 20.2356 9.87932C20.4791 10.4838 20.5192 11.1512 20.3497 11.7805C20.1803 12.4098 19.8105 12.9668 19.2963 13.3672C18.7821 13.7677 18.1516 13.9898 17.4999 14Z"
                fill="#B7BAC0" />
            <path id="Vector_2"
                d="M6.5 23C6.5 23.1313 6.52587 23.2614 6.57612 23.3827C6.62637 23.504 6.70003 23.6142 6.79289 23.7071C6.88575 23.8 6.99599 23.8736 7.11732 23.9239C7.23864 23.9741 7.36868 24 7.5 24C7.63132 24 7.76136 23.9741 7.88268 23.9239C8.00401 23.8736 8.11425 23.8 8.20711 23.7071C8.29997 23.6142 8.37362 23.504 8.42388 23.3827C8.47413 23.2614 8.5 23.1313 8.5 23C8.5 22.8687 8.47413 22.7386 8.42388 22.6173C8.37362 22.496 8.29997 22.3858 8.20711 22.2929C8.11425 22.2 8.00401 22.1264 7.88268 22.0761C7.76136 22.0259 7.63132 22 7.5 22C7.36868 22 7.23864 22.0259 7.11732 22.0761C6.99599 22.1264 6.88575 22.2 6.79289 22.2929C6.70003 22.3858 6.62637 22.496 6.57612 22.6173C6.52587 22.7386 6.5 22.8687 6.5 23Z"
                fill="white" />
            <path id="Vector_3"
                d="M9 21C9 21.2652 9.10536 21.5196 9.29289 21.7071C9.48043 21.8946 9.73478 22 10 22C10.2652 22 10.5196 21.8946 10.7071 21.7071C10.8946 21.5196 11 21.2652 11 21C11 20.7348 10.8946 20.4804 10.7071 20.2929C10.5196 20.1054 10.2652 20 10 20C9.73478 20 9.48043 20.1054 9.29289 20.2929C9.10536 20.4804 9 20.7348 9 21Z"
                fill="white" />
            <path id="Vector_4"
                d="M11.5 23C11.5 23.2652 11.6054 23.5196 11.7929 23.7071C11.9804 23.8946 12.2348 24 12.5 24C12.7652 24 13.0196 23.8946 13.2071 23.7071C13.3946 23.5196 13.5 23.2652 13.5 23C13.5 22.7348 13.3946 22.4804 13.2071 22.2929C13.0196 22.1054 12.7652 22 12.5 22C12.2348 22 11.9804 22.1054 11.7929 22.2929C11.6054 22.4804 11.5 22.7348 11.5 23Z"
                fill="white" />
            <path id="Vector_5"
                d="M14 21C14 21.2652 14.1054 21.5196 14.2929 21.7071C14.4804 21.8946 14.7348 22 15 22C15.2652 22 15.5196 21.8946 15.7071 21.7071C15.8946 21.5196 16 21.2652 16 21C16 20.7348 15.8946 20.4804 15.7071 20.2929C15.5196 20.1054 15.2652 20 15 20C14.7348 20 14.4804 20.1054 14.2929 20.2929C14.1054 20.4804 14 20.7348 14 21Z"
                fill="white" />
            <path id="Vector_6"
                d="M16.5 23C16.5 23.1313 16.5259 23.2614 16.5761 23.3827C16.6264 23.504 16.7 23.6142 16.7929 23.7071C16.8858 23.8 16.996 23.8736 17.1173 23.9239C17.2386 23.9741 17.3687 24 17.5 24C17.6313 24 17.7614 23.9741 17.8827 23.9239C18.004 23.8736 18.1142 23.8 18.2071 23.7071C18.3 23.6142 18.3736 23.504 18.4239 23.3827C18.4741 23.2614 18.5 23.1313 18.5 23C18.5 22.8687 18.4741 22.7386 18.4239 22.6173C18.3736 22.496 18.3 22.3858 18.2071 22.2929C18.1142 22.2 18.004 22.1264 17.8827 22.0761C17.7614 22.0259 17.6313 22 17.5 22C17.3687 22 17.2386 22.0259 17.1173 22.0761C16.996 22.1264 16.8858 22.2 16.7929 22.2929C16.7 22.3858 16.6264 22.496 16.5761 22.6173C16.5259 22.7386 16.5 22.8687 16.5 23Z"
                fill="white" />
            <path id="Vector_7"
                d="M6.5 19C6.5 19.1313 6.52587 19.2614 6.57612 19.3827C6.62637 19.504 6.70003 19.6142 6.79289 19.7071C6.88575 19.8 6.99599 19.8736 7.11732 19.9239C7.23864 19.9741 7.36868 20 7.5 20C7.63132 20 7.76136 19.9741 7.88268 19.9239C8.00401 19.8736 8.11425 19.8 8.20711 19.7071C8.29997 19.6142 8.37362 19.504 8.42388 19.3827C8.47413 19.2614 8.5 19.1313 8.5 19C8.5 18.8687 8.47413 18.7386 8.42388 18.6173C8.37362 18.496 8.29997 18.3858 8.20711 18.2929C8.11425 18.2 8.00401 18.1264 7.88268 18.0761C7.76136 18.0259 7.63132 18 7.5 18C7.36868 18 7.23864 18.0259 7.11732 18.0761C6.99599 18.1264 6.88575 18.2 6.79289 18.2929C6.70003 18.3858 6.62637 18.496 6.57612 18.6173C6.52587 18.7386 6.5 18.8687 6.5 19Z"
                fill="white" />
            <path id="Vector_8"
                d="M11.5 19C11.5 19.2652 11.6054 19.5196 11.7929 19.7071C11.9804 19.8946 12.2348 20 12.5 20C12.7652 20 13.0196 19.8946 13.2071 19.7071C13.3946 19.5196 13.5 19.2652 13.5 19C13.5 18.7348 13.3946 18.4804 13.2071 18.2929C13.0196 18.1054 12.7652 18 12.5 18C12.2348 18 11.9804 18.1054 11.7929 18.2929C11.6054 18.4804 11.5 18.7348 11.5 19Z"
                fill="white" />
            <path id="Vector_9"
                d="M16.5 19C16.5 19.1313 16.5259 19.2614 16.5761 19.3827C16.6264 19.504 16.7 19.6142 16.7929 19.7071C16.8858 19.8 16.996 19.8736 17.1173 19.9239C17.2386 19.9741 17.3687 20 17.5 20C17.6313 20 17.7614 19.9741 17.8827 19.9239C18.004 19.8736 18.1142 19.8 18.2071 19.7071C18.3 19.6142 18.3736 19.504 18.4239 19.3827C18.4741 19.2614 18.5 19.1313 18.5 19C18.5 18.8687 18.4741 18.7386 18.4239 18.6173C18.3736 18.496 18.3 18.3858 18.2071 18.2929C18.1142 18.2 18.004 18.1264 17.8827 18.0761C17.7614 18.0259 17.6313 18 17.5 18C17.3687 18 17.2386 18.0259 17.1173 18.0761C16.996 18.1264 16.8858 18.2 16.7929 18.2929C16.7 18.3858 16.6264 18.496 16.5761 18.6173C16.5259 18.7386 16.5 18.8687 16.5 19Z"
                fill="white" />
        </g>
    </g>
</svg>