<svg width="24" height="24" viewBox="0 0 24 24" fill="none" xmlns="http://www.w3.org/2000/svg">
    <g id="weather-sun-3" clip-path="url(#clip0_160_12661)">
        <g id="Group">
            <path id="Vector"
                d="M12.0001 4.64001C10.5445 4.64001 9.12149 5.07167 7.91114 5.8804C6.7008 6.68913 5.75745 7.8386 5.20039 9.18346C4.64333 10.5283 4.49757 12.0082 4.78156 13.4359C5.06555 14.8636 5.76652 16.175 6.79583 17.2043C7.82515 18.2336 9.13658 18.9346 10.5643 19.2186C11.992 19.5026 13.4718 19.3568 14.8167 18.7998C16.1616 18.2427 17.311 17.2994 18.1198 16.089C18.9285 14.8787 19.3601 13.4557 19.3601 12C19.3575 10.0488 18.5812 8.17833 17.2015 6.79863C15.8218 5.41894 13.9513 4.64266 12.0001 4.64001ZM12.0001 17.36C10.94 17.36 9.90373 17.0457 9.02228 16.4567C8.14084 15.8677 7.45383 15.0306 7.04815 14.0512C6.64246 13.0718 6.53631 11.9941 6.74313 10.9543C6.94995 9.91459 7.46044 8.95953 8.21005 8.20992C8.95966 7.46031 9.91472 6.94982 10.9545 6.74301C11.9942 6.53619 13.0719 6.64233 14.0513 7.04802C15.0307 7.45371 15.8679 8.14071 16.4568 9.02216C17.0458 9.90361 17.3601 10.9399 17.3601 12C17.3575 13.4208 16.7919 14.7826 15.7873 15.7872C14.7827 16.7918 13.4209 17.3574 12.0001 17.36Z"
                fill="#F2D051" />
            <path id="Vector_2"
                d="M12 3.47C12.1313 3.47 12.2614 3.44413 12.3827 3.39388C12.504 3.34363 12.6142 3.26997 12.7071 3.17711C12.8 3.08425 12.8736 2.97401 12.9239 2.85268C12.9741 2.73136 13 2.60132 13 2.47V1C13 0.734784 12.8946 0.48043 12.7071 0.292893C12.5196 0.105357 12.2652 0 12 0C11.7348 0 11.4804 0.105357 11.2929 0.292893C11.1054 0.48043 11 0.734784 11 1V2.47C11 2.60132 11.0259 2.73136 11.0761 2.85268C11.1264 2.97401 11.2 3.08425 11.2929 3.17711C11.4804 3.36464 11.7348 3.47 12 3.47Z"
                fill="#F2D051" />
            <path id="Vector_3"
                d="M4.55019 6.00005C4.64363 6.09273 4.75445 6.16606 4.87628 6.21582C4.99812 6.26559 5.12858 6.29081 5.26019 6.29005C5.39681 6.29486 5.53296 6.27161 5.66024 6.22173C5.78752 6.17185 5.90322 6.0964 6.00019 6.00005C6.09853 5.90663 6.17683 5.79418 6.23034 5.66955C6.28385 5.54491 6.31144 5.41069 6.31144 5.27505C6.31144 5.13942 6.28385 5.0052 6.23034 4.88056C6.17683 4.75592 6.09853 4.64347 6.00019 4.55005L5.00019 3.55005C4.81719 3.35247 4.5632 3.23567 4.29408 3.22536C4.02497 3.21504 3.76278 3.31205 3.56519 3.49505C3.3676 3.67805 3.25081 3.93205 3.24049 4.20116C3.23018 4.47028 3.32719 4.73247 3.51019 4.93005L4.55019 6.00005Z"
                fill="#F2D051" />
            <path id="Vector_4"
                d="M2.47 11H1C0.734784 11 0.48043 11.1054 0.292893 11.2929C0.105357 11.4804 0 11.7348 0 12C0 12.2652 0.105357 12.5196 0.292893 12.7071C0.48043 12.8946 0.734784 13 1 13H2.47C2.73522 13 2.98957 12.8946 3.17711 12.7071C3.36464 12.5196 3.47 12.2652 3.47 12C3.47 11.7348 3.36464 11.4804 3.17711 11.2929C2.98957 11.1054 2.73522 11 2.47 11Z"
                fill="#F2D051" />
            <path id="Vector_5"
                d="M4.55019 18L3.55019 19C3.45646 19.093 3.38207 19.2036 3.3313 19.3254C3.28053 19.4473 3.25439 19.578 3.25439 19.71C3.25439 19.842 3.28053 19.9727 3.3313 20.0946C3.38207 20.2165 3.45646 20.3271 3.55019 20.42C3.64363 20.5127 3.75445 20.586 3.87629 20.6358C3.99812 20.6856 4.12859 20.7108 4.26019 20.71C4.3918 20.7108 4.52226 20.6856 4.6441 20.6358C4.76594 20.586 4.87675 20.5127 4.97019 20.42L5.97019 19.42C6.1585 19.2317 6.26428 18.9763 6.26428 18.71C6.26428 18.4437 6.1585 18.1883 5.97019 18C5.78189 17.8117 5.52649 17.7059 5.26019 17.7059C4.99389 17.7059 4.7385 17.8117 4.55019 18Z"
                fill="#F2D051" />
            <path id="Vector_6"
                d="M12 20.53C11.7348 20.53 11.4804 20.6354 11.2929 20.8229C11.1054 21.0105 11 21.2648 11 21.53V23C11 23.2652 11.1054 23.5196 11.2929 23.7071C11.4804 23.8947 11.7348 24 12 24C12.2652 24 12.5196 23.8947 12.7071 23.7071C12.8946 23.5196 13 23.2652 13 23V21.53C13 21.2648 12.8946 21.0105 12.7071 20.8229C12.5196 20.6354 12.2652 20.53 12 20.53Z"
                fill="#F2D051" />
            <path id="Vector_7"
                d="M19.45 18C19.2577 17.8077 18.9969 17.6997 18.725 17.6997C18.4531 17.6997 18.1923 17.8077 18 18C17.8077 18.1923 17.6997 18.4531 17.6997 18.725C17.6997 18.9969 17.8077 19.2577 18 19.45L19 20.45C19.0935 20.5427 19.2043 20.616 19.3261 20.6658C19.4479 20.7155 19.5784 20.7408 19.71 20.74C19.8416 20.7408 19.9721 20.7155 20.0939 20.6658C20.2158 20.616 20.3266 20.5427 20.42 20.45C20.5137 20.357 20.5881 20.2464 20.6389 20.1246C20.6897 20.0027 20.7158 19.872 20.7158 19.74C20.7158 19.608 20.6897 19.4773 20.6389 19.3554C20.5881 19.2336 20.5137 19.123 20.42 19.03L19.45 18Z"
                fill="#F2D051" />
            <path id="Vector_8"
                d="M22.9998 11H21.5298C21.2646 11 21.0102 11.1054 20.8227 11.2929C20.6351 11.4804 20.5298 11.7348 20.5298 12C20.5298 12.2652 20.6351 12.5196 20.8227 12.7071C21.0102 12.8946 21.2646 13 21.5298 13H22.9998C23.265 13 23.5194 12.8946 23.7069 12.7071C23.8944 12.5196 23.9998 12.2652 23.9998 12C23.9998 11.7348 23.8944 11.4804 23.7069 11.2929C23.5194 11.1054 23.265 11 22.9998 11Z"
                fill="#F2D051" />
            <path id="Vector_9"
                d="M18.7399 6.25998C19.0014 6.26957 19.2563 6.17623 19.4499 5.99998L20.4499 4.99998C20.5431 4.90674 20.6171 4.79605 20.6675 4.67423C20.718 4.55241 20.744 4.42184 20.744 4.28998C20.744 4.15812 20.718 4.02755 20.6675 3.90573C20.6171 3.78391 20.5431 3.67322 20.4499 3.57998C20.3566 3.48674 20.2459 3.41278 20.1241 3.36232C20.0023 3.31186 19.8717 3.28589 19.7399 3.28589C19.608 3.28589 19.4774 3.31186 19.3556 3.36232C19.2338 3.41278 19.1231 3.48674 19.0299 3.57998L18.0299 4.57998C17.9341 4.67095 17.8574 4.77997 17.804 4.90076C17.7507 5.02155 17.7218 5.15171 17.719 5.28373C17.7162 5.41575 17.7396 5.54701 17.7878 5.66995C17.836 5.79288 17.9081 5.90505 17.9999 5.99998C18.0993 6.09095 18.2161 6.16088 18.3433 6.20556C18.4705 6.25024 18.6054 6.26875 18.7399 6.25998Z"
                fill="#F2D051" />
        </g>
    </g>
    <defs>
        <clipPath id="clip0_160_12661">
            <rect width="24" height="24" fill="white" />
        </clipPath>
    </defs>
</svg>