<svg width="24" height="24" viewBox="0 0 24 24" fill="none" xmlns="http://www.w3.org/2000/svg">
    <g id="weather-cloud" clip-path="url(#clip0_160_12701)">
        <g id="Group">
            <g id="Group_2">
                <path id="Vector"
                    d="M9.25 3C9.38132 3 9.51136 2.97413 9.63268 2.92388C9.75401 2.87362 9.86425 2.79997 9.95711 2.70711C10.05 2.61425 10.1236 2.50401 10.1739 2.38268C10.2241 2.26136 10.25 2.13132 10.25 2V1C10.25 0.734783 10.1446 0.48043 9.95711 0.292893C9.76957 0.105357 9.51522 0 9.25 0C8.98478 0 8.73043 0.105357 8.54289 0.292893C8.35536 0.48043 8.25 0.734783 8.25 1V2C8.25 2.26522 8.35536 2.51957 8.54289 2.70711C8.73043 2.89464 8.98478 3 9.25 3Z"
                    fill="#F2D051" />
                <path id="Vector_2"
                    d="M3.30986 4.57998C3.49722 4.76623 3.75067 4.87078 4.01486 4.87078C4.27904 4.87078 4.53249 4.76623 4.71986 4.57998C4.90611 4.39262 5.01065 4.13917 5.01065 3.87498C5.01065 3.6108 4.90611 3.35735 4.71986 3.16998L3.99986 2.45998C3.90689 2.36625 3.79629 2.29186 3.67443 2.24109C3.55257 2.19032 3.42187 2.16418 3.28986 2.16418C3.15784 2.16418 3.02714 2.19032 2.90528 2.24109C2.78342 2.29186 2.67282 2.36625 2.57986 2.45998C2.3936 2.64735 2.28906 2.9008 2.28906 3.16498C2.28906 3.42917 2.3936 3.68262 2.57986 3.86998L3.30986 4.57998Z"
                    fill="#F2D051" />
                <path id="Vector_3"
                    d="M3 9.25C3 9.11868 2.97413 8.98864 2.92388 8.86732C2.87362 8.74599 2.79997 8.63575 2.70711 8.54289C2.61425 8.45003 2.50401 8.37638 2.38268 8.32612C2.26136 8.27587 2.13132 8.25 2 8.25H1C0.734783 8.25 0.48043 8.35536 0.292893 8.54289C0.105357 8.73043 0 8.98478 0 9.25C0 9.51522 0.105357 9.76957 0.292893 9.95711C0.48043 10.1446 0.734783 10.25 1 10.25H2C2.26522 10.25 2.51957 10.1446 2.70711 9.95711C2.89464 9.76957 3 9.51522 3 9.25Z"
                    fill="#F2D051" />
                <path id="Vector_4"
                    d="M15 4.71C15.1323 4.70945 15.2632 4.68265 15.3851 4.63115C15.507 4.57966 15.6174 4.50449 15.71 4.41L16.41 3.71C16.5038 3.61704 16.5782 3.50644 16.6289 3.38458C16.6797 3.26272 16.7058 3.13201 16.7058 3C16.7058 2.86799 16.6797 2.73728 16.6289 2.61542C16.5782 2.49356 16.5038 2.38296 16.41 2.29C16.2227 2.10375 15.9692 1.99921 15.705 1.99921C15.4408 1.99921 15.1874 2.10375 15 2.29L14.25 3C14.1062 3.14221 14.0089 3.32469 13.9709 3.52335C13.9329 3.72202 13.9561 3.92753 14.0373 4.11276C14.1186 4.29799 14.2541 4.45423 14.426 4.56086C14.5978 4.66749 14.798 4.71949 15 4.71Z"
                    fill="#F2D051" />
            </g>
            <path id="Vector_5"
                d="M22.09 15.07C22.0621 15.0468 22.0396 15.0177 22.0241 14.9849C22.0085 14.9521 22.0003 14.9163 22 14.88C21.9645 13.2254 21.3439 11.6369 20.2484 10.3964C19.1529 9.1559 17.6532 8.3437 16.0157 8.10395C14.3782 7.86419 12.7086 8.21239 11.3035 9.08673C9.8983 9.96108 8.84836 11.305 8.34001 12.88C8.32692 12.9285 8.29833 12.9713 8.25861 13.002C8.21889 13.0327 8.17021 13.0496 8.12001 13.05C6.7563 13.2194 5.50539 13.8931 4.61354 14.9385C3.72168 15.984 3.2535 17.3255 3.30116 18.6988C3.34882 20.0722 3.90887 21.378 4.87105 22.3591C5.83324 23.3402 7.12784 23.9256 8.50001 24H19C20.0395 23.9998 21.0531 23.6755 21.8998 23.0724C22.7464 22.4694 23.3841 21.6174 23.724 20.635C24.0639 19.6527 24.0892 18.5888 23.7964 17.5914C23.5035 16.594 22.9071 15.7126 22.09 15.07ZM22 19C22 19.7956 21.6839 20.5587 21.1213 21.1213C20.5587 21.6839 19.7957 22 19 22H8.50001C7.57176 22 6.68152 21.6313 6.02514 20.9749C5.36876 20.3185 5.00001 19.4283 5.00001 18.5C5.00001 17.5717 5.36876 16.6815 6.02514 16.0251C6.68152 15.3687 7.57176 15 8.50001 15H9.00001C9.25642 15.0318 9.5152 14.9632 9.72213 14.8085C9.92906 14.6538 10.0681 14.4249 10.11 14.17C10.3601 12.9758 11.0382 11.9144 12.0166 11.1854C12.995 10.4565 14.2062 10.1105 15.422 10.2125C16.6378 10.3146 17.7743 10.8576 18.6175 11.7394C19.4607 12.6212 19.9524 13.7809 20 15V15.43C19.9743 15.6275 20.0081 15.8282 20.0972 16.0064C20.1863 16.1846 20.3266 16.3321 20.5 16.43C20.952 16.6909 21.3281 17.0652 21.5911 17.5159C21.8542 17.9666 21.9951 18.4782 22 19Z"
                fill="#B7BAC0" />
            <path id="Vector_6"
                d="M6.00023 12C6.03543 11.9889 6.06745 11.9694 6.09355 11.9433C6.11966 11.9172 6.1391 11.8852 6.15023 11.85C6.16686 11.8193 6.17557 11.7849 6.17557 11.75C6.17557 11.7151 6.16686 11.6807 6.15023 11.65C5.79965 11.0388 5.61674 10.3458 5.62001 9.64124C5.62328 8.93665 5.8126 8.24542 6.16883 7.6375C6.52506 7.02958 7.03554 6.52654 7.64863 6.17929C8.26172 5.83204 8.95566 5.6529 9.66023 5.65999C10.68 5.66082 11.6592 6.05899 12.3902 6.76999C12.421 6.80084 12.4596 6.82272 12.5019 6.83329C12.5442 6.84386 12.5885 6.84272 12.6302 6.82999C13.186 6.67764 13.7554 6.5805 14.3302 6.53999C14.3756 6.53645 14.4191 6.52061 14.4561 6.49418C14.4931 6.46775 14.5222 6.43173 14.5402 6.38999C14.5643 6.35275 14.5772 6.30934 14.5772 6.26499C14.5772 6.22063 14.5643 6.17722 14.5402 6.13999C13.7994 5.1043 12.7483 4.33115 11.5389 3.93242C10.3296 3.53368 9.02478 3.53004 7.81324 3.92201C6.60169 4.31398 5.54627 5.08124 4.79967 6.11277C4.05307 7.14431 3.65401 8.38663 3.66023 9.65999C3.66075 10.6574 3.91543 11.6383 4.40023 12.51C4.43308 12.5677 4.48674 12.6106 4.55023 12.63C4.5816 12.6444 4.61571 12.6518 4.65023 12.6518C4.68474 12.6518 4.71885 12.6444 4.75023 12.63C5.14509 12.3793 5.5638 12.1682 6.00023 12Z"
                fill="#F2D051" />
        </g>
    </g>
    <defs>
        <clipPath id="clip0_160_12701">
            <rect width="24" height="24" fill="white" />
        </clipPath>
    </defs>
</svg>